ISO-10303-21;
HEADER;
FILE_DESCRIPTION(('Open CASCADE Model'),'2;1');
FILE_NAME('Open CASCADE Shape Model','2025-08-06T14:36:28',('Author'),(
    'Open CASCADE'),'Open CASCADE STEP processor 7.7','Open CASCADE 7.7'
  ,'Unknown');
FILE_SCHEMA(('AUTOMOTIVE_DESIGN { 1 0 10303 214 1 1 1 1 }'));
ENDSEC;
DATA;
#1 = APPLICATION_PROTOCOL_DEFINITION('international standard',
  'automotive_design',2000,#2);
#2 = APPLICATION_CONTEXT(
  'core data for automotive mechanical design processes');
#3 = SHAPE_DEFINITION_REPRESENTATION(#4,#10);
#4 = PRODUCT_DEFINITION_SHAPE('','',#5);
#5 = PRODUCT_DEFINITION('design','',#6,#9);
#6 = PRODUCT_DEFINITION_FORMATION('','',#7);
#7 = PRODUCT('substep_2.1','substep_2.1','',(#8));
#8 = PRODUCT_CONTEXT('',#2,'mechanical');
#9 = PRODUCT_DEFINITION_CONTEXT('part definition',#2,'design');
#10 = ADVANCED_BREP_SHAPE_REPRESENTATION('',(#11,#15),#1559);
#11 = AXIS2_PLACEMENT_3D('',#12,#13,#14);
#12 = CARTESIAN_POINT('',(0.,0.,0.));
#13 = DIRECTION('',(0.,0.,1.));
#14 = DIRECTION('',(1.,0.,-0.));
#15 = MANIFOLD_SOLID_BREP('PartBody',#16);
#16 = CLOSED_SHELL('',(#17,#137,#213,#262,#342,#369,#376,#431,#1500,
    #1555));
#17 = ADVANCED_FACE('',(#18),#32,.F.);
#18 = FACE_BOUND('',#19,.F.);
#19 = EDGE_LOOP('',(#20,#55,#83,#111));
#20 = ORIENTED_EDGE('',*,*,#21,.F.);
#21 = EDGE_CURVE('',#22,#24,#26,.T.);
#22 = VERTEX_POINT('',#23);
#23 = CARTESIAN_POINT('',(-125.,-100.,-150.));
#24 = VERTEX_POINT('',#25);
#25 = CARTESIAN_POINT('',(-125.,-100.,150.));
#26 = SURFACE_CURVE('',#27,(#31,#43),.PCURVE_S1.);
#27 = LINE('',#28,#29);
#28 = CARTESIAN_POINT('',(-125.,-100.,-150.));
#29 = VECTOR('',#30,1.);
#30 = DIRECTION('',(0.,0.,1.));
#31 = PCURVE('',#32,#37);
#32 = PLANE('',#33);
#33 = AXIS2_PLACEMENT_3D('',#34,#35,#36);
#34 = CARTESIAN_POINT('',(-125.,-100.,-150.));
#35 = DIRECTION('',(1.,0.,0.));
#36 = DIRECTION('',(0.,0.,1.));
#37 = DEFINITIONAL_REPRESENTATION('',(#38),#42);
#38 = LINE('',#39,#40);
#39 = CARTESIAN_POINT('',(0.,0.));
#40 = VECTOR('',#41,1.);
#41 = DIRECTION('',(1.,0.));
#42 = ( GEOMETRIC_REPRESENTATION_CONTEXT(2) 
PARAMETRIC_REPRESENTATION_CONTEXT() REPRESENTATION_CONTEXT('2D SPACE',''
  ) );
#43 = PCURVE('',#44,#49);
#44 = PLANE('',#45);
#45 = AXIS2_PLACEMENT_3D('',#46,#47,#48);
#46 = CARTESIAN_POINT('',(-125.,-100.,-150.));
#47 = DIRECTION('',(0.,1.,0.));
#48 = DIRECTION('',(0.,0.,1.));
#49 = DEFINITIONAL_REPRESENTATION('',(#50),#54);
#50 = LINE('',#51,#52);
#51 = CARTESIAN_POINT('',(0.,0.));
#52 = VECTOR('',#53,1.);
#53 = DIRECTION('',(1.,0.));
#54 = ( GEOMETRIC_REPRESENTATION_CONTEXT(2) 
PARAMETRIC_REPRESENTATION_CONTEXT() REPRESENTATION_CONTEXT('2D SPACE',''
  ) );
#55 = ORIENTED_EDGE('',*,*,#56,.T.);
#56 = EDGE_CURVE('',#22,#57,#59,.T.);
#57 = VERTEX_POINT('',#58);
#58 = CARTESIAN_POINT('',(-125.,100.,-150.));
#59 = SURFACE_CURVE('',#60,(#64,#71),.PCURVE_S1.);
#60 = LINE('',#61,#62);
#61 = CARTESIAN_POINT('',(-125.,-100.,-150.));
#62 = VECTOR('',#63,1.);
#63 = DIRECTION('',(0.,1.,0.));
#64 = PCURVE('',#32,#65);
#65 = DEFINITIONAL_REPRESENTATION('',(#66),#70);
#66 = LINE('',#67,#68);
#67 = CARTESIAN_POINT('',(0.,0.));
#68 = VECTOR('',#69,1.);
#69 = DIRECTION('',(0.,-1.));
#70 = ( GEOMETRIC_REPRESENTATION_CONTEXT(2) 
PARAMETRIC_REPRESENTATION_CONTEXT() REPRESENTATION_CONTEXT('2D SPACE',''
  ) );
#71 = PCURVE('',#72,#77);
#72 = PLANE('',#73);
#73 = AXIS2_PLACEMENT_3D('',#74,#75,#76);
#74 = CARTESIAN_POINT('',(-125.,-100.,-150.));
#75 = DIRECTION('',(0.,0.,1.));
#76 = DIRECTION('',(1.,0.,0.));
#77 = DEFINITIONAL_REPRESENTATION('',(#78),#82);
#78 = LINE('',#79,#80);
#79 = CARTESIAN_POINT('',(0.,0.));
#80 = VECTOR('',#81,1.);
#81 = DIRECTION('',(0.,1.));
#82 = ( GEOMETRIC_REPRESENTATION_CONTEXT(2) 
PARAMETRIC_REPRESENTATION_CONTEXT() REPRESENTATION_CONTEXT('2D SPACE',''
  ) );
#83 = ORIENTED_EDGE('',*,*,#84,.T.);
#84 = EDGE_CURVE('',#57,#85,#87,.T.);
#85 = VERTEX_POINT('',#86);
#86 = CARTESIAN_POINT('',(-125.,100.,150.));
#87 = SURFACE_CURVE('',#88,(#92,#99),.PCURVE_S1.);
#88 = LINE('',#89,#90);
#89 = CARTESIAN_POINT('',(-125.,100.,-150.));
#90 = VECTOR('',#91,1.);
#91 = DIRECTION('',(0.,0.,1.));
#92 = PCURVE('',#32,#93);
#93 = DEFINITIONAL_REPRESENTATION('',(#94),#98);
#94 = LINE('',#95,#96);
#95 = CARTESIAN_POINT('',(0.,-200.));
#96 = VECTOR('',#97,1.);
#97 = DIRECTION('',(1.,0.));
#98 = ( GEOMETRIC_REPRESENTATION_CONTEXT(2) 
PARAMETRIC_REPRESENTATION_CONTEXT() REPRESENTATION_CONTEXT('2D SPACE',''
  ) );
#99 = PCURVE('',#100,#105);
#100 = PLANE('',#101);
#101 = AXIS2_PLACEMENT_3D('',#102,#103,#104);
#102 = CARTESIAN_POINT('',(-125.,100.,-150.));
#103 = DIRECTION('',(0.,1.,0.));
#104 = DIRECTION('',(0.,0.,1.));
#105 = DEFINITIONAL_REPRESENTATION('',(#106),#110);
#106 = LINE('',#107,#108);
#107 = CARTESIAN_POINT('',(0.,0.));
#108 = VECTOR('',#109,1.);
#109 = DIRECTION('',(1.,0.));
#110 = ( GEOMETRIC_REPRESENTATION_CONTEXT(2) 
PARAMETRIC_REPRESENTATION_CONTEXT() REPRESENTATION_CONTEXT('2D SPACE',''
  ) );
#111 = ORIENTED_EDGE('',*,*,#112,.F.);
#112 = EDGE_CURVE('',#24,#85,#113,.T.);
#113 = SURFACE_CURVE('',#114,(#118,#125),.PCURVE_S1.);
#114 = LINE('',#115,#116);
#115 = CARTESIAN_POINT('',(-125.,-100.,150.));
#116 = VECTOR('',#117,1.);
#117 = DIRECTION('',(0.,1.,0.));
#118 = PCURVE('',#32,#119);
#119 = DEFINITIONAL_REPRESENTATION('',(#120),#124);
#120 = LINE('',#121,#122);
#121 = CARTESIAN_POINT('',(300.,0.));
#122 = VECTOR('',#123,1.);
#123 = DIRECTION('',(0.,-1.));
#124 = ( GEOMETRIC_REPRESENTATION_CONTEXT(2) 
PARAMETRIC_REPRESENTATION_CONTEXT() REPRESENTATION_CONTEXT('2D SPACE',''
  ) );
#125 = PCURVE('',#126,#131);
#126 = PLANE('',#127);
#127 = AXIS2_PLACEMENT_3D('',#128,#129,#130);
#128 = CARTESIAN_POINT('',(-125.,-100.,150.));
#129 = DIRECTION('',(0.,0.,1.));
#130 = DIRECTION('',(1.,0.,0.));
#131 = DEFINITIONAL_REPRESENTATION('',(#132),#136);
#132 = LINE('',#133,#134);
#133 = CARTESIAN_POINT('',(0.,0.));
#134 = VECTOR('',#135,1.);
#135 = DIRECTION('',(0.,1.));
#136 = ( GEOMETRIC_REPRESENTATION_CONTEXT(2) 
PARAMETRIC_REPRESENTATION_CONTEXT() REPRESENTATION_CONTEXT('2D SPACE',''
  ) );
#137 = ADVANCED_FACE('',(#138),#44,.F.);
#138 = FACE_BOUND('',#139,.F.);
#139 = EDGE_LOOP('',(#140,#163,#164,#187));
#140 = ORIENTED_EDGE('',*,*,#141,.F.);
#141 = EDGE_CURVE('',#22,#142,#144,.T.);
#142 = VERTEX_POINT('',#143);
#143 = CARTESIAN_POINT('',(125.,-100.,-150.));
#144 = SURFACE_CURVE('',#145,(#149,#156),.PCURVE_S1.);
#145 = LINE('',#146,#147);
#146 = CARTESIAN_POINT('',(-125.,-100.,-150.));
#147 = VECTOR('',#148,1.);
#148 = DIRECTION('',(1.,0.,0.));
#149 = PCURVE('',#44,#150);
#150 = DEFINITIONAL_REPRESENTATION('',(#151),#155);
#151 = LINE('',#152,#153);
#152 = CARTESIAN_POINT('',(0.,0.));
#153 = VECTOR('',#154,1.);
#154 = DIRECTION('',(0.,1.));
#155 = ( GEOMETRIC_REPRESENTATION_CONTEXT(2) 
PARAMETRIC_REPRESENTATION_CONTEXT() REPRESENTATION_CONTEXT('2D SPACE',''
  ) );
#156 = PCURVE('',#72,#157);
#157 = DEFINITIONAL_REPRESENTATION('',(#158),#162);
#158 = LINE('',#159,#160);
#159 = CARTESIAN_POINT('',(0.,0.));
#160 = VECTOR('',#161,1.);
#161 = DIRECTION('',(1.,0.));
#162 = ( GEOMETRIC_REPRESENTATION_CONTEXT(2) 
PARAMETRIC_REPRESENTATION_CONTEXT() REPRESENTATION_CONTEXT('2D SPACE',''
  ) );
#163 = ORIENTED_EDGE('',*,*,#21,.T.);
#164 = ORIENTED_EDGE('',*,*,#165,.T.);
#165 = EDGE_CURVE('',#24,#166,#168,.T.);
#166 = VERTEX_POINT('',#167);
#167 = CARTESIAN_POINT('',(125.,-100.,150.));
#168 = SURFACE_CURVE('',#169,(#173,#180),.PCURVE_S1.);
#169 = LINE('',#170,#171);
#170 = CARTESIAN_POINT('',(-125.,-100.,150.));
#171 = VECTOR('',#172,1.);
#172 = DIRECTION('',(1.,0.,0.));
#173 = PCURVE('',#44,#174);
#174 = DEFINITIONAL_REPRESENTATION('',(#175),#179);
#175 = LINE('',#176,#177);
#176 = CARTESIAN_POINT('',(300.,0.));
#177 = VECTOR('',#178,1.);
#178 = DIRECTION('',(0.,1.));
#179 = ( GEOMETRIC_REPRESENTATION_CONTEXT(2) 
PARAMETRIC_REPRESENTATION_CONTEXT() REPRESENTATION_CONTEXT('2D SPACE',''
  ) );
#180 = PCURVE('',#126,#181);
#181 = DEFINITIONAL_REPRESENTATION('',(#182),#186);
#182 = LINE('',#183,#184);
#183 = CARTESIAN_POINT('',(0.,0.));
#184 = VECTOR('',#185,1.);
#185 = DIRECTION('',(1.,0.));
#186 = ( GEOMETRIC_REPRESENTATION_CONTEXT(2) 
PARAMETRIC_REPRESENTATION_CONTEXT() REPRESENTATION_CONTEXT('2D SPACE',''
  ) );
#187 = ORIENTED_EDGE('',*,*,#188,.F.);
#188 = EDGE_CURVE('',#142,#166,#189,.T.);
#189 = SURFACE_CURVE('',#190,(#194,#201),.PCURVE_S1.);
#190 = LINE('',#191,#192);
#191 = CARTESIAN_POINT('',(125.,-100.,-150.));
#192 = VECTOR('',#193,1.);
#193 = DIRECTION('',(0.,0.,1.));
#194 = PCURVE('',#44,#195);
#195 = DEFINITIONAL_REPRESENTATION('',(#196),#200);
#196 = LINE('',#197,#198);
#197 = CARTESIAN_POINT('',(0.,250.));
#198 = VECTOR('',#199,1.);
#199 = DIRECTION('',(1.,0.));
#200 = ( GEOMETRIC_REPRESENTATION_CONTEXT(2) 
PARAMETRIC_REPRESENTATION_CONTEXT() REPRESENTATION_CONTEXT('2D SPACE',''
  ) );
#201 = PCURVE('',#202,#207);
#202 = PLANE('',#203);
#203 = AXIS2_PLACEMENT_3D('',#204,#205,#206);
#204 = CARTESIAN_POINT('',(125.,-100.,-150.));
#205 = DIRECTION('',(1.,0.,0.));
#206 = DIRECTION('',(0.,0.,1.));
#207 = DEFINITIONAL_REPRESENTATION('',(#208),#212);
#208 = LINE('',#209,#210);
#209 = CARTESIAN_POINT('',(0.,0.));
#210 = VECTOR('',#211,1.);
#211 = DIRECTION('',(1.,0.));
#212 = ( GEOMETRIC_REPRESENTATION_CONTEXT(2) 
PARAMETRIC_REPRESENTATION_CONTEXT() REPRESENTATION_CONTEXT('2D SPACE',''
  ) );
#213 = ADVANCED_FACE('',(#214),#126,.T.);
#214 = FACE_BOUND('',#215,.T.);
#215 = EDGE_LOOP('',(#216,#217,#218,#241));
#216 = ORIENTED_EDGE('',*,*,#112,.F.);
#217 = ORIENTED_EDGE('',*,*,#165,.T.);
#218 = ORIENTED_EDGE('',*,*,#219,.T.);
#219 = EDGE_CURVE('',#166,#220,#222,.T.);
#220 = VERTEX_POINT('',#221);
#221 = CARTESIAN_POINT('',(125.,100.,150.));
#222 = SURFACE_CURVE('',#223,(#227,#234),.PCURVE_S1.);
#223 = LINE('',#224,#225);
#224 = CARTESIAN_POINT('',(125.,-100.,150.));
#225 = VECTOR('',#226,1.);
#226 = DIRECTION('',(0.,1.,0.));
#227 = PCURVE('',#126,#228);
#228 = DEFINITIONAL_REPRESENTATION('',(#229),#233);
#229 = LINE('',#230,#231);
#230 = CARTESIAN_POINT('',(250.,0.));
#231 = VECTOR('',#232,1.);
#232 = DIRECTION('',(0.,1.));
#233 = ( GEOMETRIC_REPRESENTATION_CONTEXT(2) 
PARAMETRIC_REPRESENTATION_CONTEXT() REPRESENTATION_CONTEXT('2D SPACE',''
  ) );
#234 = PCURVE('',#202,#235);
#235 = DEFINITIONAL_REPRESENTATION('',(#236),#240);
#236 = LINE('',#237,#238);
#237 = CARTESIAN_POINT('',(300.,0.));
#238 = VECTOR('',#239,1.);
#239 = DIRECTION('',(0.,-1.));
#240 = ( GEOMETRIC_REPRESENTATION_CONTEXT(2) 
PARAMETRIC_REPRESENTATION_CONTEXT() REPRESENTATION_CONTEXT('2D SPACE',''
  ) );
#241 = ORIENTED_EDGE('',*,*,#242,.F.);
#242 = EDGE_CURVE('',#85,#220,#243,.T.);
#243 = SURFACE_CURVE('',#244,(#248,#255),.PCURVE_S1.);
#244 = LINE('',#245,#246);
#245 = CARTESIAN_POINT('',(-125.,100.,150.));
#246 = VECTOR('',#247,1.);
#247 = DIRECTION('',(1.,0.,0.));
#248 = PCURVE('',#126,#249);
#249 = DEFINITIONAL_REPRESENTATION('',(#250),#254);
#250 = LINE('',#251,#252);
#251 = CARTESIAN_POINT('',(0.,200.));
#252 = VECTOR('',#253,1.);
#253 = DIRECTION('',(1.,0.));
#254 = ( GEOMETRIC_REPRESENTATION_CONTEXT(2) 
PARAMETRIC_REPRESENTATION_CONTEXT() REPRESENTATION_CONTEXT('2D SPACE',''
  ) );
#255 = PCURVE('',#100,#256);
#256 = DEFINITIONAL_REPRESENTATION('',(#257),#261);
#257 = LINE('',#258,#259);
#258 = CARTESIAN_POINT('',(300.,0.));
#259 = VECTOR('',#260,1.);
#260 = DIRECTION('',(0.,1.));
#261 = ( GEOMETRIC_REPRESENTATION_CONTEXT(2) 
PARAMETRIC_REPRESENTATION_CONTEXT() REPRESENTATION_CONTEXT('2D SPACE',''
  ) );
#262 = ADVANCED_FACE('',(#263,#311),#100,.T.);
#263 = FACE_BOUND('',#264,.T.);
#264 = EDGE_LOOP('',(#265,#288,#289,#290));
#265 = ORIENTED_EDGE('',*,*,#266,.F.);
#266 = EDGE_CURVE('',#57,#267,#269,.T.);
#267 = VERTEX_POINT('',#268);
#268 = CARTESIAN_POINT('',(125.,100.,-150.));
#269 = SURFACE_CURVE('',#270,(#274,#281),.PCURVE_S1.);
#270 = LINE('',#271,#272);
#271 = CARTESIAN_POINT('',(-125.,100.,-150.));
#272 = VECTOR('',#273,1.);
#273 = DIRECTION('',(1.,0.,0.));
#274 = PCURVE('',#100,#275);
#275 = DEFINITIONAL_REPRESENTATION('',(#276),#280);
#276 = LINE('',#277,#278);
#277 = CARTESIAN_POINT('',(0.,0.));
#278 = VECTOR('',#279,1.);
#279 = DIRECTION('',(0.,1.));
#280 = ( GEOMETRIC_REPRESENTATION_CONTEXT(2) 
PARAMETRIC_REPRESENTATION_CONTEXT() REPRESENTATION_CONTEXT('2D SPACE',''
  ) );
#281 = PCURVE('',#72,#282);
#282 = DEFINITIONAL_REPRESENTATION('',(#283),#287);
#283 = LINE('',#284,#285);
#284 = CARTESIAN_POINT('',(0.,200.));
#285 = VECTOR('',#286,1.);
#286 = DIRECTION('',(1.,0.));
#287 = ( GEOMETRIC_REPRESENTATION_CONTEXT(2) 
PARAMETRIC_REPRESENTATION_CONTEXT() REPRESENTATION_CONTEXT('2D SPACE',''
  ) );
#288 = ORIENTED_EDGE('',*,*,#84,.T.);
#289 = ORIENTED_EDGE('',*,*,#242,.T.);
#290 = ORIENTED_EDGE('',*,*,#291,.F.);
#291 = EDGE_CURVE('',#267,#220,#292,.T.);
#292 = SURFACE_CURVE('',#293,(#297,#304),.PCURVE_S1.);
#293 = LINE('',#294,#295);
#294 = CARTESIAN_POINT('',(125.,100.,-150.));
#295 = VECTOR('',#296,1.);
#296 = DIRECTION('',(0.,0.,1.));
#297 = PCURVE('',#100,#298);
#298 = DEFINITIONAL_REPRESENTATION('',(#299),#303);
#299 = LINE('',#300,#301);
#300 = CARTESIAN_POINT('',(0.,250.));
#301 = VECTOR('',#302,1.);
#302 = DIRECTION('',(1.,0.));
#303 = ( GEOMETRIC_REPRESENTATION_CONTEXT(2) 
PARAMETRIC_REPRESENTATION_CONTEXT() REPRESENTATION_CONTEXT('2D SPACE',''
  ) );
#304 = PCURVE('',#202,#305);
#305 = DEFINITIONAL_REPRESENTATION('',(#306),#310);
#306 = LINE('',#307,#308);
#307 = CARTESIAN_POINT('',(0.,-200.));
#308 = VECTOR('',#309,1.);
#309 = DIRECTION('',(1.,0.));
#310 = ( GEOMETRIC_REPRESENTATION_CONTEXT(2) 
PARAMETRIC_REPRESENTATION_CONTEXT() REPRESENTATION_CONTEXT('2D SPACE',''
  ) );
#311 = FACE_BOUND('',#312,.T.);
#312 = EDGE_LOOP('',(#313));
#313 = ORIENTED_EDGE('',*,*,#314,.F.);
#314 = EDGE_CURVE('',#315,#315,#317,.T.);
#315 = VERTEX_POINT('',#316);
#316 = CARTESIAN_POINT('',(-62.5,100.,83.));
#317 = SURFACE_CURVE('',#318,(#323,#330),.PCURVE_S1.);
#318 = CIRCLE('',#319,8.);
#319 = AXIS2_PLACEMENT_3D('',#320,#321,#322);
#320 = CARTESIAN_POINT('',(-62.5,100.,75.));
#321 = DIRECTION('',(0.,1.,0.));
#322 = DIRECTION('',(0.,0.,1.));
#323 = PCURVE('',#100,#324);
#324 = DEFINITIONAL_REPRESENTATION('',(#325),#329);
#325 = CIRCLE('',#326,8.);
#326 = AXIS2_PLACEMENT_2D('',#327,#328);
#327 = CARTESIAN_POINT('',(225.,62.5));
#328 = DIRECTION('',(1.,0.));
#329 = ( GEOMETRIC_REPRESENTATION_CONTEXT(2) 
PARAMETRIC_REPRESENTATION_CONTEXT() REPRESENTATION_CONTEXT('2D SPACE',''
  ) );
#330 = PCURVE('',#331,#336);
#331 = CYLINDRICAL_SURFACE('',#332,8.);
#332 = AXIS2_PLACEMENT_3D('',#333,#334,#335);
#333 = CARTESIAN_POINT('',(-62.5,100.,75.));
#334 = DIRECTION('',(0.,1.,0.));
#335 = DIRECTION('',(0.,0.,1.));
#336 = DEFINITIONAL_REPRESENTATION('',(#337),#341);
#337 = LINE('',#338,#339);
#338 = CARTESIAN_POINT('',(0.,0.));
#339 = VECTOR('',#340,1.);
#340 = DIRECTION('',(1.,0.));
#341 = ( GEOMETRIC_REPRESENTATION_CONTEXT(2) 
PARAMETRIC_REPRESENTATION_CONTEXT() REPRESENTATION_CONTEXT('2D SPACE',''
  ) );
#342 = ADVANCED_FACE('',(#343),#72,.F.);
#343 = FACE_BOUND('',#344,.F.);
#344 = EDGE_LOOP('',(#345,#346,#347,#368));
#345 = ORIENTED_EDGE('',*,*,#56,.F.);
#346 = ORIENTED_EDGE('',*,*,#141,.T.);
#347 = ORIENTED_EDGE('',*,*,#348,.T.);
#348 = EDGE_CURVE('',#142,#267,#349,.T.);
#349 = SURFACE_CURVE('',#350,(#354,#361),.PCURVE_S1.);
#350 = LINE('',#351,#352);
#351 = CARTESIAN_POINT('',(125.,-100.,-150.));
#352 = VECTOR('',#353,1.);
#353 = DIRECTION('',(0.,1.,0.));
#354 = PCURVE('',#72,#355);
#355 = DEFINITIONAL_REPRESENTATION('',(#356),#360);
#356 = LINE('',#357,#358);
#357 = CARTESIAN_POINT('',(250.,0.));
#358 = VECTOR('',#359,1.);
#359 = DIRECTION('',(0.,1.));
#360 = ( GEOMETRIC_REPRESENTATION_CONTEXT(2) 
PARAMETRIC_REPRESENTATION_CONTEXT() REPRESENTATION_CONTEXT('2D SPACE',''
  ) );
#361 = PCURVE('',#202,#362);
#362 = DEFINITIONAL_REPRESENTATION('',(#363),#367);
#363 = LINE('',#364,#365);
#364 = CARTESIAN_POINT('',(0.,0.));
#365 = VECTOR('',#366,1.);
#366 = DIRECTION('',(0.,-1.));
#367 = ( GEOMETRIC_REPRESENTATION_CONTEXT(2) 
PARAMETRIC_REPRESENTATION_CONTEXT() REPRESENTATION_CONTEXT('2D SPACE',''
  ) );
#368 = ORIENTED_EDGE('',*,*,#266,.F.);
#369 = ADVANCED_FACE('',(#370),#202,.T.);
#370 = FACE_BOUND('',#371,.T.);
#371 = EDGE_LOOP('',(#372,#373,#374,#375));
#372 = ORIENTED_EDGE('',*,*,#188,.F.);
#373 = ORIENTED_EDGE('',*,*,#348,.T.);
#374 = ORIENTED_EDGE('',*,*,#291,.T.);
#375 = ORIENTED_EDGE('',*,*,#219,.F.);
#376 = ADVANCED_FACE('',(#377),#331,.F.);
#377 = FACE_BOUND('',#378,.F.);
#378 = EDGE_LOOP('',(#379,#402,#429,#430));
#379 = ORIENTED_EDGE('',*,*,#380,.T.);
#380 = EDGE_CURVE('',#315,#381,#383,.T.);
#381 = VERTEX_POINT('',#382);
#382 = CARTESIAN_POINT('',(-62.5,99.6,83.));
#383 = SEAM_CURVE('',#384,(#388,#395),.PCURVE_S1.);
#384 = LINE('',#385,#386);
#385 = CARTESIAN_POINT('',(-62.5,100.,83.));
#386 = VECTOR('',#387,1.);
#387 = DIRECTION('',(-0.,-1.,-0.));
#388 = PCURVE('',#331,#389);
#389 = DEFINITIONAL_REPRESENTATION('',(#390),#394);
#390 = LINE('',#391,#392);
#391 = CARTESIAN_POINT('',(0.,0.));
#392 = VECTOR('',#393,1.);
#393 = DIRECTION('',(0.,-1.));
#394 = ( GEOMETRIC_REPRESENTATION_CONTEXT(2) 
PARAMETRIC_REPRESENTATION_CONTEXT() REPRESENTATION_CONTEXT('2D SPACE',''
  ) );
#395 = PCURVE('',#331,#396);
#396 = DEFINITIONAL_REPRESENTATION('',(#397),#401);
#397 = LINE('',#398,#399);
#398 = CARTESIAN_POINT('',(6.28318530718,0.));
#399 = VECTOR('',#400,1.);
#400 = DIRECTION('',(0.,-1.));
#401 = ( GEOMETRIC_REPRESENTATION_CONTEXT(2) 
PARAMETRIC_REPRESENTATION_CONTEXT() REPRESENTATION_CONTEXT('2D SPACE',''
  ) );
#402 = ORIENTED_EDGE('',*,*,#403,.T.);
#403 = EDGE_CURVE('',#381,#381,#404,.T.);
#404 = SURFACE_CURVE('',#405,(#410,#417),.PCURVE_S1.);
#405 = CIRCLE('',#406,8.);
#406 = AXIS2_PLACEMENT_3D('',#407,#408,#409);
#407 = CARTESIAN_POINT('',(-62.5,99.6,75.));
#408 = DIRECTION('',(4.338734978716E-30,1.,-5.784979971621E-30));
#409 = DIRECTION('',(7.707141553787E-45,5.784979971621E-30,1.));
#410 = PCURVE('',#331,#411);
#411 = DEFINITIONAL_REPRESENTATION('',(#412),#416);
#412 = LINE('',#413,#414);
#413 = CARTESIAN_POINT('',(0.,-0.4));
#414 = VECTOR('',#415,1.);
#415 = DIRECTION('',(1.,0.));
#416 = ( GEOMETRIC_REPRESENTATION_CONTEXT(2) 
PARAMETRIC_REPRESENTATION_CONTEXT() REPRESENTATION_CONTEXT('2D SPACE',''
  ) );
#417 = PCURVE('',#418,#423);
#418 = CONICAL_SURFACE('',#419,8.,0.785398163397);
#419 = AXIS2_PLACEMENT_3D('',#420,#421,#422);
#420 = CARTESIAN_POINT('',(-62.5,99.6,75.));
#421 = DIRECTION('',(4.338734978716E-30,1.,-5.784979971621E-30));
#422 = DIRECTION('',(7.707141553787E-45,5.784979971621E-30,1.));
#423 = DEFINITIONAL_REPRESENTATION('',(#424),#428);
#424 = LINE('',#425,#426);
#425 = CARTESIAN_POINT('',(0.,-0.));
#426 = VECTOR('',#427,1.);
#427 = DIRECTION('',(1.,-0.));
#428 = ( GEOMETRIC_REPRESENTATION_CONTEXT(2) 
PARAMETRIC_REPRESENTATION_CONTEXT() REPRESENTATION_CONTEXT('2D SPACE',''
  ) );
#429 = ORIENTED_EDGE('',*,*,#380,.F.);
#430 = ORIENTED_EDGE('',*,*,#314,.F.);
#431 = ADVANCED_FACE('',(#432),#418,.F.);
#432 = FACE_BOUND('',#433,.T.);
#433 = EDGE_LOOP('',(#434,#435,#456,#1499));
#434 = ORIENTED_EDGE('',*,*,#403,.T.);
#435 = ORIENTED_EDGE('',*,*,#436,.T.);
#436 = EDGE_CURVE('',#381,#437,#439,.T.);
#437 = VERTEX_POINT('',#438);
#438 = CARTESIAN_POINT('',(-62.5,96.6,80.));
#439 = SEAM_CURVE('',#440,(#444,#450),.PCURVE_S1.);
#440 = LINE('',#441,#442);
#441 = CARTESIAN_POINT('',(-62.5,99.6,83.));
#442 = VECTOR('',#443,1.);
#443 = DIRECTION('',(-3.067948925221E-30,-0.707106781187,-0.707106781187
    ));
#444 = PCURVE('',#418,#445);
#445 = DEFINITIONAL_REPRESENTATION('',(#446),#449);
#446 = B_SPLINE_CURVE_WITH_KNOTS('',1,(#447,#448),.UNSPECIFIED.,.F.,.F.,
  (2,2),(0.,5.091168824543),.PIECEWISE_BEZIER_KNOTS.);
#447 = CARTESIAN_POINT('',(0.,0.));
#448 = CARTESIAN_POINT('',(0.,-3.6));
#449 = ( GEOMETRIC_REPRESENTATION_CONTEXT(2) 
PARAMETRIC_REPRESENTATION_CONTEXT() REPRESENTATION_CONTEXT('2D SPACE',''
  ) );
#450 = PCURVE('',#418,#451);
#451 = DEFINITIONAL_REPRESENTATION('',(#452),#455);
#452 = B_SPLINE_CURVE_WITH_KNOTS('',1,(#453,#454),.UNSPECIFIED.,.F.,.F.,
  (2,2),(0.,5.091168824543),.PIECEWISE_BEZIER_KNOTS.);
#453 = CARTESIAN_POINT('',(6.28318530718,0.));
#454 = CARTESIAN_POINT('',(6.28318530718,-3.6));
#455 = ( GEOMETRIC_REPRESENTATION_CONTEXT(2) 
PARAMETRIC_REPRESENTATION_CONTEXT() REPRESENTATION_CONTEXT('2D SPACE',''
  ) );
#456 = ORIENTED_EDGE('',*,*,#457,.F.);
#457 = EDGE_CURVE('',#437,#437,#458,.T.);
#458 = SURFACE_CURVE('',#459,(#802,#1148),.PCURVE_S1.);
#459 = B_SPLINE_CURVE_WITH_KNOTS('',6,(#460,#461,#462,#463,#464,#465,
    #466,#467,#468,#469,#470,#471,#472,#473,#474,#475,#476,#477,#478,
    #479,#480,#481,#482,#483,#484,#485,#486,#487,#488,#489,#490,#491,
    #492,#493,#494,#495,#496,#497,#498,#499,#500,#501,#502,#503,#504,
    #505,#506,#507,#508,#509,#510,#511,#512,#513,#514,#515,#516,#517,
    #518,#519,#520,#521,#522,#523,#524,#525,#526,#527,#528,#529,#530,
    #531,#532,#533,#534,#535,#536,#537,#538,#539,#540,#541,#542,#543,
    #544,#545,#546,#547,#548,#549,#550,#551,#552,#553,#554,#555,#556,
    #557,#558,#559,#560,#561,#562,#563,#564,#565,#566,#567,#568,#569,
    #570,#571,#572,#573,#574,#575,#576,#577,#578,#579,#580,#581,#582,
    #583,#584,#585,#586,#587,#588,#589,#590,#591,#592,#593,#594,#595,
    #596,#597,#598,#599,#600,#601,#602,#603,#604,#605,#606,#607,#608,
    #609,#610,#611,#612,#613,#614,#615,#616,#617,#618,#619,#620,#621,
    #622,#623,#624,#625,#626,#627,#628,#629,#630,#631,#632,#633,#634,
    #635,#636,#637,#638,#639,#640,#641,#642,#643,#644,#645,#646,#647,
    #648,#649,#650,#651,#652,#653,#654,#655,#656,#657,#658,#659,#660,
    #661,#662,#663,#664,#665,#666,#667,#668,#669,#670,#671,#672,#673,
    #674,#675,#676,#677,#678,#679,#680,#681,#682,#683,#684,#685,#686,
    #687,#688,#689,#690,#691,#692,#693,#694,#695,#696,#697,#698,#699,
    #700,#701,#702,#703,#704,#705,#706,#707,#708,#709,#710,#711,#712,
    #713,#714,#715,#716,#717,#718,#719,#720,#721,#722,#723,#724,#725,
    #726,#727,#728,#729,#730,#731,#732,#733,#734,#735,#736,#737,#738,
    #739,#740,#741,#742,#743,#744,#745,#746,#747,#748,#749,#750,#751,
    #752,#753,#754,#755,#756,#757,#758,#759,#760,#761,#762,#763,#764,
    #765,#766,#767,#768,#769,#770,#771,#772,#773,#774,#775,#776,#777,
    #778,#779,#780,#781,#782,#783,#784,#785,#786,#787,#788,#789,#790,
    #791,#792,#793,#794,#795,#796,#797,#798,#799,#800,#801),
  .UNSPECIFIED.,.T.,.F.,(7,5,5,5,5,5,5,5,5,5,5,5,5,5,5,5,5,5,5,5,5,5,5,5
    ,5,5,5,5,5,5,5,5,5,5,5,5,5,5,5,5,5,5,5,5,5,5,5,5,5,5,5,5,5,5,5,5,5,5
    ,5,5,5,5,5,5,5,5,5,5,7),(0.,1.206019280172E-02,2.663318843414E-02,
    4.020115003753E-02,5.477414566995E-02,6.934714130236E-02,
    8.392013693476E-02,9.547803033835E-02,0.107538440806,0.122111436439,
    0.136684432071,0.148242325475,0.160805252998,0.173368180522,
    0.182413488504,0.191961313581,0.207036826205,0.215077099988,
    0.232665197272,0.251258328244,0.266333840868,0.281409353492,
    0.292967246896,0.314072961463,0.328645957095,0.341208884619,
    0.352766778023,0.364827188491,0.378395150094,0.392968145727,
    0.40653610733,0.421109102962,0.432164479294,0.444727406817,
    0.457290334341,0.471863329974,0.485933808599,0.499501770202,
    0.514074765834,0.528145244459,0.542215723084,0.556788718717,
    0.571361714349,0.585934709982,0.599000154551,0.612568116154,
    0.628146145753,0.642216624378,0.655282068947,0.66985506458,
    0.682920509149,0.695985953718,0.7050312617,0.719604257333,
    0.729152082409,0.743725078042,0.756288005566,0.77035848419,
    0.784931479823,0.799504475455,0.81357495408,0.828147949713,
    0.842720945345,0.854781355813,0.869354351446,0.880409727777,
    0.892470138245,0.901515446227,1.),.UNSPECIFIED.);
#460 = CARTESIAN_POINT('',(-62.5,96.6,80.));
#461 = CARTESIAN_POINT('',(-62.43684739381,96.6,80.));
#462 = CARTESIAN_POINT('',(-62.37370002994,96.6,79.999042892005));
#463 = CARTESIAN_POINT('',(-62.31057235265,96.6,79.997128769654));
#464 = CARTESIAN_POINT('',(-62.24748047759,96.6,79.994258139212));
#465 = CARTESIAN_POINT('',(-62.18444219186,96.6,79.990431919571));
#466 = CARTESIAN_POINT('',(-62.04539258682,96.6,79.97987492804));
#467 = CARTESIAN_POINT('',(-61.96941399081,96.6,79.972705094685));
#468 = CARTESIAN_POINT('',(-61.89357308914,96.6,79.964144366471));
#469 = CARTESIAN_POINT('',(-61.8179016866,96.6,79.954196136883));
#470 = CARTESIAN_POINT('',(-61.74243146959,96.6,79.942864768611));
#471 = CARTESIAN_POINT('',(-61.59714533245,96.6,79.918322913179));
#472 = CARTESIAN_POINT('',(-61.5272983952,96.6,79.905295911778));
#473 = CARTESIAN_POINT('',(-61.45767866795,96.6,79.891078892753));
#474 = CARTESIAN_POINT('',(-61.38831147134,96.6,79.875676877044));
#475 = CARTESIAN_POINT('',(-61.31922197313,96.6,79.859095603122));
#476 = CARTESIAN_POINT('',(-61.17655308658,96.6,79.822272334327));
#477 = CARTESIAN_POINT('',(-61.10302018276,96.6,79.801850149899));
#478 = CARTESIAN_POINT('',(-61.02986747575,96.6,79.780082975276));
#479 = CARTESIAN_POINT('',(-60.95712567759,96.6,79.756979745292));
#480 = CARTESIAN_POINT('',(-60.88482521331,96.6,79.732550328048));
#481 = CARTESIAN_POINT('',(-60.74116722848,96.6,79.681060721769));
#482 = CARTESIAN_POINT('',(-60.66980968331,96.6,79.65400052391));
#483 = CARTESIAN_POINT('',(-60.59895372296,96.6,79.625635733814));
#484 = CARTESIAN_POINT('',(-60.52862911386,96.6,79.595978057078));
#485 = CARTESIAN_POINT('',(-60.45886525127,96.6,79.565040102409));
#486 = CARTESIAN_POINT('',(-60.32051706734,96.6,79.500630660842));
#487 = CARTESIAN_POINT('',(-60.25193272228,96.6,79.467159162904));
#488 = CARTESIAN_POINT('',(-60.18396714772,96.6,79.432434400707));
#489 = CARTESIAN_POINT('',(-60.11664891509,96.6,79.39647075254));
#490 = CARTESIAN_POINT('',(-60.05000614362,96.6,79.359283462078));
#491 = CARTESIAN_POINT('',(-59.93176954047,96.6,79.290437570494));
#492 = CARTESIAN_POINT('',(-59.87991484674,96.6,79.259226942262));
#493 = CARTESIAN_POINT('',(-59.82851621664,96.6,79.227264787758));
#494 = CARTESIAN_POINT('',(-59.77758724129,96.6,79.194559467603));
#495 = CARTESIAN_POINT('',(-59.72714130543,96.6,79.161119668976));
#496 = CARTESIAN_POINT('',(-59.62507014274,96.6,79.091303696129));
#497 = CARTESIAN_POINT('',(-59.57348899545,96.6,79.054863061234));
#498 = CARTESIAN_POINT('',(-59.5224631192,96.6,79.017642743036));
#499 = CARTESIAN_POINT('',(-59.47200721497,96.6,78.979653351606));
#500 = CARTESIAN_POINT('',(-59.422135711,96.6,78.940905864978));
#501 = CARTESIAN_POINT('',(-59.3133246186,96.6,78.853689428667));
#502 = CARTESIAN_POINT('',(-59.25466039147,96.6,78.804876909599));
#503 = CARTESIAN_POINT('',(-59.19689506194,96.6,78.754994095543));
#504 = CARTESIAN_POINT('',(-59.14005296555,96.6,78.704061743222));
#505 = CARTESIAN_POINT('',(-59.08415779298,96.6,78.652101342487));
#506 = CARTESIAN_POINT('',(-58.97430738696,96.6,78.546168890147));
#507 = CARTESIAN_POINT('',(-58.9203521347,96.6,78.492196820385));
#508 = CARTESIAN_POINT('',(-58.8673898781,96.6,78.437241130863));
#509 = CARTESIAN_POINT('',(-58.81544295288,96.6,78.381324716504));
#510 = CARTESIAN_POINT('',(-58.76453298551,96.6,78.324471143318));
#511 = CARTESIAN_POINT('',(-58.67514302585,96.6,78.220889840843));
#512 = CARTESIAN_POINT('',(-58.63627056762,96.6,78.174500784285));
#513 = CARTESIAN_POINT('',(-58.59807394975,96.6,78.127549566196));
#514 = CARTESIAN_POINT('',(-58.56056330203,96.6,78.080048515645));
#515 = CARTESIAN_POINT('',(-58.52374845279,96.6,78.032010203302));
#516 = CARTESIAN_POINT('',(-58.44838944687,96.6,77.930661831103));
#517 = CARTESIAN_POINT('',(-58.40997328215,96.6,77.877256588143));
#518 = CARTESIAN_POINT('',(-58.37240267033,96.6,77.823248168187));
#519 = CARTESIAN_POINT('',(-58.33568940185,96.6,77.768653331294));
#520 = CARTESIAN_POINT('',(-58.29984482203,96.6,77.713489141958));
#521 = CARTESIAN_POINT('',(-58.22991484024,96.6,77.602056796251));
#522 = CARTESIAN_POINT('',(-58.19582943164,96.6,77.545788629333));
#523 = CARTESIAN_POINT('',(-58.16263450519,96.6,77.488985837536));
#524 = CARTESIAN_POINT('',(-58.13034049301,96.6,77.431666058439));
#525 = CARTESIAN_POINT('',(-58.09895735955,96.6,77.373847198008));
#526 = CARTESIAN_POINT('',(-58.04656141535,96.6,77.273571597303));
#527 = CARTESIAN_POINT('',(-58.02510534973,96.6,77.231346457913));
#528 = CARTESIAN_POINT('',(-58.00412994803,96.6,77.188878793842));
#529 = CARTESIAN_POINT('',(-57.98363862336,96.6,77.146175449932));
#530 = CARTESIAN_POINT('',(-57.96363465852,96.6,77.103243334455));
#531 = CARTESIAN_POINT('',(-57.92352367289,96.6,77.014538064112));
#532 = CARTESIAN_POINT('',(-57.90347266619,96.6,76.968739577587));
#533 = CARTESIAN_POINT('',(-57.88397189369,96.6,76.922702159306));
#534 = CARTESIAN_POINT('',(-57.86502489705,96.6,76.876434078206));
#535 = CARTESIAN_POINT('',(-57.8466350519,96.6,76.829943672393));
#536 = CARTESIAN_POINT('',(-57.80065375195,96.6,76.709495684058));
#537 = CARTESIAN_POINT('',(-57.77389895132,96.6,76.635218688583));
#538 = CARTESIAN_POINT('',(-57.74855380653,96.6,76.560441476875));
#539 = CARTESIAN_POINT('',(-57.72462989579,96.6,76.485197511997));
#540 = CARTESIAN_POINT('',(-57.70213773495,96.6,76.409520605918));
#541 = CARTESIAN_POINT('',(-57.66985959955,96.6,76.292871218168));
#542 = CARTESIAN_POINT('',(-57.65904236254,96.6,76.252184081097));
#543 = CARTESIAN_POINT('',(-57.64863649941,96.6,76.211388687088));
#544 = CARTESIAN_POINT('',(-57.63864335539,96.6,76.170490236841));
#545 = CARTESIAN_POINT('',(-57.62906418796,96.6,76.129493952975));
#546 = CARTESIAN_POINT('',(-57.59985387241,96.6,75.998523178685));
#547 = CARTESIAN_POINT('',(-57.5817941104,96.6,75.908198188173));
#548 = CARTESIAN_POINT('',(-57.56573313545,96.6,75.817485063323));
#549 = CARTESIAN_POINT('',(-57.55168115831,96.6,75.726439097597));
#550 = CARTESIAN_POINT('',(-57.53964634583,96.6,75.635115923082));
#551 = CARTESIAN_POINT('',(-57.5190512092,96.6,75.446795990913));
#552 = CARTESIAN_POINT('',(-57.51072871585,96.6,75.34977314532));
#553 = CARTESIAN_POINT('',(-57.50467457103,96.6,75.252569108846));
#554 = CARTESIAN_POINT('',(-57.50089342064,96.6,75.155250147292));
#555 = CARTESIAN_POINT('',(-57.49938732633,96.6,75.057882657119));
#556 = CARTESIAN_POINT('',(-57.50077882437,96.6,74.88160113981));
#557 = CARTESIAN_POINT('',(-57.50289719383,96.6,74.802680902076));
#558 = CARTESIAN_POINT('',(-57.5065105934,96.6,74.723807895926));
#559 = CARTESIAN_POINT('',(-57.51161762604,96.6,74.645017503281));
#560 = CARTESIAN_POINT('',(-57.51821577823,96.6,74.566345044308));
#561 = CARTESIAN_POINT('',(-57.53438706156,96.6,74.409306510526));
#562 = CARTESIAN_POINT('',(-57.54396019588,96.6,74.330940404891));
#563 = CARTESIAN_POINT('',(-57.55501719136,96.6,74.252762718775));
#564 = CARTESIAN_POINT('',(-57.56755331081,96.6,74.17480854336));
#565 = CARTESIAN_POINT('',(-57.58156271139,96.6,74.097112802753));
#566 = CARTESIAN_POINT('',(-57.60890317377,96.6,73.96036829791));
#567 = CARTESIAN_POINT('',(-57.62162978317,96.6,73.901198660513));
#568 = CARTESIAN_POINT('',(-57.63521514238,96.6,73.84221699801));
#569 = CARTESIAN_POINT('',(-57.64965574515,96.6,73.783438877182));
#570 = CARTESIAN_POINT('',(-57.66494770945,96.6,73.724879775373));
#571 = CARTESIAN_POINT('',(-57.71055811362,96.6,73.560049135198));
#572 = CARTESIAN_POINT('',(-57.74285422368,96.6,73.454324748638));
#573 = CARTESIAN_POINT('',(-57.77794913999,96.6,73.349475744165));
#574 = CARTESIAN_POINT('',(-57.81581283915,96.6,73.245594527497));
#575 = CARTESIAN_POINT('',(-57.85641124192,96.6,73.142772086702));
#576 = CARTESIAN_POINT('',(-57.92960036481,96.6,72.970894439976));
#577 = CARTESIAN_POINT('',(-57.96078014538,96.6,72.901238321468));
#578 = CARTESIAN_POINT('',(-57.99323301156,96.6,72.832159092242));
#579 = CARTESIAN_POINT('',(-58.02694554002,96.6,72.763685784603));
#580 = CARTESIAN_POINT('',(-58.06190342751,96.6,72.695847007608));
#581 = CARTESIAN_POINT('',(-58.12928809785,96.6,72.570760548869));
#582 = CARTESIAN_POINT('',(-58.1613989334,96.6,72.513342642886));
#583 = CARTESIAN_POINT('',(-58.19441427204,96.6,72.456435282088));
#584 = CARTESIAN_POINT('',(-58.22832392397,96.6,72.400056245171));
#585 = CARTESIAN_POINT('',(-58.26311723516,96.6,72.344223036557));
#586 = CARTESIAN_POINT('',(-58.33159567144,96.6,72.238104347879));
#587 = CARTESIAN_POINT('',(-58.36514677931,96.6,72.18773237415));
#588 = CARTESIAN_POINT('',(-58.39942775378,96.6,72.137850380547));
#589 = CARTESIAN_POINT('',(-58.43442962098,96.6,72.088471561312));
#590 = CARTESIAN_POINT('',(-58.47014309026,96.6,72.039608889583));
#591 = CARTESIAN_POINT('',(-58.5445572991,96.6,71.940839877028));
#592 = CARTESIAN_POINT('',(-58.58332041443,96.6,71.890980519657));
#593 = CARTESIAN_POINT('',(-58.62283698357,96.6,71.841711534516));
#594 = CARTESIAN_POINT('',(-58.66309573475,96.6,71.793047121576));
#595 = CARTESIAN_POINT('',(-58.70408504111,96.6,71.745001191552));
#596 = CARTESIAN_POINT('',(-58.79271428466,96.6,71.644246812729));
#597 = CARTESIAN_POINT('',(-58.84054510318,96.6,71.59170625499));
#598 = CARTESIAN_POINT('',(-58.88926831275,96.6,71.53998509005));
#599 = CARTESIAN_POINT('',(-58.93886632012,96.6,71.489102207683));
#600 = CARTESIAN_POINT('',(-58.98932100235,96.6,71.439075990069));
#601 = CARTESIAN_POINT('',(-59.09570587025,96.6,71.337131769064));
#602 = CARTESIAN_POINT('',(-59.15176482265,96.6,71.285348109309));
#603 = CARTESIAN_POINT('',(-59.2087674482,96.6,71.234595482636));
#604 = CARTESIAN_POINT('',(-59.26668998852,96.6,71.184895303989));
#605 = CARTESIAN_POINT('',(-59.32550804262,96.6,71.136268253152));
#606 = CARTESIAN_POINT('',(-59.44076864196,96.6,71.044478501255));
#607 = CARTESIAN_POINT('',(-59.49709527851,96.6,71.001170217709));
#608 = CARTESIAN_POINT('',(-59.55415626722,96.6,70.958825517692));
#609 = CARTESIAN_POINT('',(-59.61193096658,96.6,70.917459901935));
#610 = CARTESIAN_POINT('',(-59.67039830289,96.6,70.877088278322));
#611 = CARTESIAN_POINT('',(-59.79305586421,96.6,70.795445844712));
#612 = CARTESIAN_POINT('',(-59.85734921822,96.6,70.754329933049));
#613 = CARTESIAN_POINT('',(-59.92239018085,96.6,70.714394965745));
#614 = CARTESIAN_POINT('',(-59.98815159739,96.6,70.675657844924));
#615 = CARTESIAN_POINT('',(-60.05460580984,96.6,70.638134635985));
#616 = CARTESIAN_POINT('',(-60.17264240461,96.6,70.574307135586));
#617 = CARTESIAN_POINT('',(-60.22394266255,96.6,70.54748107533));
#618 = CARTESIAN_POINT('',(-60.27561314038,96.6,70.521369032653));
#619 = CARTESIAN_POINT('',(-60.32764140388,96.6,70.495977363756));
#620 = CARTESIAN_POINT('',(-60.38001487497,96.6,70.471312135221));
#621 = CARTESIAN_POINT('',(-60.49261396382,96.6,70.420182520639));
#622 = CARTESIAN_POINT('',(-60.55293645161,96.6,70.393931441536));
#623 = CARTESIAN_POINT('',(-60.61366962382,96.6,70.368634364799));
#624 = CARTESIAN_POINT('',(-60.67479460575,96.6,70.344299269116));
#625 = CARTESIAN_POINT('',(-60.73629231931,96.6,70.32093363377));
#626 = CARTESIAN_POINT('',(-60.85999464664,96.6,70.276155243503));
#627 = CARTESIAN_POINT('',(-60.92219927214,96.6,70.254742484344));
#628 = CARTESIAN_POINT('',(-60.98473807778,96.6,70.234313140576));
#629 = CARTESIAN_POINT('',(-61.04759161851,96.6,70.214873677726));
#630 = CARTESIAN_POINT('',(-61.11074028587,96.6,70.196430047433));
#631 = CARTESIAN_POINT('',(-61.24773617219,96.6,70.158754550262));
#632 = CARTESIAN_POINT('',(-61.32167857448,96.6,70.139868716792));
#633 = CARTESIAN_POINT('',(-61.39596064565,96.6,70.122338675817));
#634 = CARTESIAN_POINT('',(-61.47055130094,96.6,70.106171963803));
#635 = CARTESIAN_POINT('',(-61.54541924003,96.6,70.091375164901));
#636 = CARTESIAN_POINT('',(-61.69305652668,96.6,70.064995458771));
#637 = CARTESIAN_POINT('',(-61.76580923975,96.6,70.053319317884));
#638 = CARTESIAN_POINT('',(-61.83876272108,96.6,70.042930556061));
#639 = CARTESIAN_POINT('',(-61.9118884933,96.6,70.033833400001));
#640 = CARTESIAN_POINT('',(-61.98515796683,96.6,70.026031235324));
#641 = CARTESIAN_POINT('',(-62.12930603932,96.6,70.013254285957));
#642 = CARTESIAN_POINT('',(-62.20017658998,96.6,70.008188473421));
#643 = CARTESIAN_POINT('',(-62.27112835825,96.6,70.004331449548));
#644 = CARTESIAN_POINT('',(-62.34213557688,96.6,70.001684762043));
#645 = CARTESIAN_POINT('',(-62.41317244508,96.6,70.00024922574));
#646 = CARTESIAN_POINT('',(-62.56051608384,96.6,69.999784004402));
#647 = CARTESIAN_POINT('',(-62.63682346418,96.6,70.000940407286));
#648 = CARTESIAN_POINT('',(-62.71310325452,96.6,70.003494231737));
#649 = CARTESIAN_POINT('',(-62.78932348152,96.6,70.007444602722));
#650 = CARTESIAN_POINT('',(-62.86545221342,96.6,70.012789669691));
#651 = CARTESIAN_POINT('',(-63.01484203316,96.6,70.026031235324));
#652 = CARTESIAN_POINT('',(-63.08811150669,96.6,70.033833400001));
#653 = CARTESIAN_POINT('',(-63.16123727891,96.6,70.042930556061));
#654 = CARTESIAN_POINT('',(-63.23419076025,96.6,70.053319317884));
#655 = CARTESIAN_POINT('',(-63.30694347332,96.6,70.064995458771));
#656 = CARTESIAN_POINT('',(-63.45199063256,96.6,70.090912363117));
#657 = CARTESIAN_POINT('',(-63.52428510034,96.6,70.105153130436));
#658 = CARTESIAN_POINT('',(-63.59632209126,96.6,70.120671144176));
#659 = CARTESIAN_POINT('',(-63.66807342631,96.6,70.13746050772));
#660 = CARTESIAN_POINT('',(-63.73951111253,96.6,70.155514496566));
#661 = CARTESIAN_POINT('',(-63.88424272399,96.6,70.194826300735));
#662 = CARTESIAN_POINT('',(-63.95751184798,96.6,70.216175516927));
#663 = CARTESIAN_POINT('',(-64.03038381934,96.6,70.238864814474));
#664 = CARTESIAN_POINT('',(-64.10282804134,96.6,70.262884871386));
#665 = CARTESIAN_POINT('',(-64.17481421599,96.6,70.288225436108));
#666 = CARTESIAN_POINT('',(-64.31781047228,96.6,70.341525218926));
#667 = CARTESIAN_POINT('',(-64.38882057842,96.6,70.369484446158));
#668 = CARTESIAN_POINT('',(-64.45931266381,96.6,70.398741826977));
#669 = CARTESIAN_POINT('',(-64.52925711221,96.6,70.429285280794));
#670 = CARTESIAN_POINT('',(-64.59862468996,96.6,70.461101828671));
#671 = CARTESIAN_POINT('',(-64.73614840186,96.6,70.527253357959));
#672 = CARTESIAN_POINT('',(-64.80430455957,96.6,70.56158835071));
#673 = CARTESIAN_POINT('',(-64.87182616843,96.6,70.597168693203));
#674 = CARTESIAN_POINT('',(-64.93868484087,96.6,70.633979647466));
#675 = CARTESIAN_POINT('',(-65.00485265242,96.6,70.672005615914));
#676 = CARTESIAN_POINT('',(-65.12898099506,96.6,70.746396957823));
#677 = CARTESIAN_POINT('',(-65.18708247293,96.6,70.782527189642));
#678 = CARTESIAN_POINT('',(-65.24458678906,96.6,70.819608978352));
#679 = CARTESIAN_POINT('',(-65.30147450339,96.6,70.857629938152));
#680 = CARTESIAN_POINT('',(-65.35772652213,96.6,70.8965771559));
#681 = CARTESIAN_POINT('',(-65.47106004126,96.6,70.9778303044));
#682 = CARTESIAN_POINT('',(-65.52809024582,96.6,71.020207812306));
#683 = CARTESIAN_POINT('',(-65.58439371556,96.6,71.063554661654));
#684 = CARTESIAN_POINT('',(-65.63994990716,96.6,71.107855221783));
#685 = CARTESIAN_POINT('',(-65.69473872979,96.6,71.15309328455));
#686 = CARTESIAN_POINT('',(-65.81074262781,96.6,71.252249180512));
#687 = CARTESIAN_POINT('',(-65.87170726568,96.6,71.306460046315));
#688 = CARTESIAN_POINT('',(-65.93160472886,96.6,71.361859248575));
#689 = CARTESIAN_POINT('',(-65.99040616232,96.6,71.418420446663));
#690 = CARTESIAN_POINT('',(-66.04808358586,96.6,71.47611637248));
#691 = CARTESIAN_POINT('',(-66.1556659154,96.6,71.588030729027));
#692 = CARTESIAN_POINT('',(-66.20578285542,96.6,71.642045373784));
#693 = CARTESIAN_POINT('',(-66.25494074567,96.6,71.696941991499));
#694 = CARTESIAN_POINT('',(-66.30312025482,96.6,71.752699248511));
#695 = CARTESIAN_POINT('',(-66.35030268862,96.6,71.809295250719));
#696 = CARTESIAN_POINT('',(-66.43933962732,96.6,71.920018958924));
#697 = CARTESIAN_POINT('',(-66.48133398261,96.6,71.974034229975));
#698 = CARTESIAN_POINT('',(-66.52243860048,96.6,72.028735380023));
#699 = CARTESIAN_POINT('',(-66.56263953301,96.6,72.08410405754));
#700 = CARTESIAN_POINT('',(-66.60192333972,96.6,72.140121536179));
#701 = CARTESIAN_POINT('',(-66.6830562671,96.6,72.259952105288));
#702 = CARTESIAN_POINT('',(-66.7246783889,96.6,72.323918913383));
#703 = CARTESIAN_POINT('',(-66.76512550429,96.6,72.388642628443));
#704 = CARTESIAN_POINT('',(-66.80438049732,96.6,72.454096229999));
#705 = CARTESIAN_POINT('',(-66.84242708478,96.6,72.52025218774));
#706 = CARTESIAN_POINT('',(-66.91226330002,96.6,72.64699925965));
#707 = CARTESIAN_POINT('',(-66.94429305103,96.6,72.707458092197));
#708 = CARTESIAN_POINT('',(-66.97532793738,96.6,72.768438755164));
#709 = CARTESIAN_POINT('',(-67.0053573918,96.6,72.829920763052));
#710 = CARTESIAN_POINT('',(-67.03437141156,96.6,72.891883348859));
#711 = CARTESIAN_POINT('',(-67.09034970542,96.6,73.0167275793));
#712 = CARTESIAN_POINT('',(-67.11731398572,96.6,73.07960923776));
#713 = CARTESIAN_POINT('',(-67.14324396178,96.6,73.142929390699));
#714 = CARTESIAN_POINT('',(-67.16813078171,96.6,73.206666755096));
#715 = CARTESIAN_POINT('',(-67.19196617937,96.6,73.270799813663));
#716 = CARTESIAN_POINT('',(-67.23051067889,96.6,73.379965508987));
#717 = CARTESIAN_POINT('',(-67.24577126783,96.6,73.424803434607));
#718 = CARTESIAN_POINT('',(-67.26052169375,96.6,73.469813376877));
#719 = CARTESIAN_POINT('',(-67.2747595472,96.6,73.51498807662));
#720 = CARTESIAN_POINT('',(-67.28848255671,96.6,73.560320230315));
#721 = CARTESIAN_POINT('',(-67.32296497288,96.6,73.679079461366));
#722 = CARTESIAN_POINT('',(-67.34289945379,96.6,73.752746075462));
#723 = CARTESIAN_POINT('',(-67.36148310498,96.6,73.826771586894));
#724 = CARTESIAN_POINT('',(-67.3787079491,96.6,73.901125021109));
#725 = CARTESIAN_POINT('',(-67.39456695795,96.6,73.975775174492));
#726 = CARTESIAN_POINT('',(-67.41854559755,96.6,74.09977314575));
#727 = CARTESIAN_POINT('',(-67.4274482486,96.6,74.148969558647));
#728 = CARTESIAN_POINT('',(-67.4357602971,96.6,74.19827101765));
#729 = CARTESIAN_POINT('',(-67.44348021209,96.6,74.247668658512));
#730 = CARTESIAN_POINT('',(-67.45060664016,96.6,74.297153588142));
#731 = CARTESIAN_POINT('',(-67.46710794165,96.6,74.422366123786));
#732 = CARTESIAN_POINT('',(-67.4756921298,96.6,74.498197946102));
#733 = CARTESIAN_POINT('',(-67.48288678751,96.6,74.5741806108));
#734 = CARTESIAN_POINT('',(-67.48868870525,96.6,74.650282293993));
#735 = CARTESIAN_POINT('',(-67.49309564636,96.6,74.726471088654));
#736 = CARTESIAN_POINT('',(-67.49870177865,96.6,74.868442519713));
#737 = CARTESIAN_POINT('',(-67.50025957687,96.6,74.934211014847));
#738 = CARTESIAN_POINT('',(-67.50077893282,96.6,75.));
#739 = CARTESIAN_POINT('',(-67.50025957687,96.6,75.065788985154));
#740 = CARTESIAN_POINT('',(-67.49870177865,96.6,75.131557480288));
#741 = CARTESIAN_POINT('',(-67.4931994636,96.6,75.270899811232));
#742 = CARTESIAN_POINT('',(-67.48899097205,96.6,75.344463240489));
#743 = CARTESIAN_POINT('',(-67.48348200975,96.6,75.41794649127));
#744 = CARTESIAN_POINT('',(-67.47667455967,96.6,75.491320842609));
#745 = CARTESIAN_POINT('',(-67.46857145034,96.6,75.564557644453));
#746 = CARTESIAN_POINT('',(-67.44944572234,96.6,75.713308657327));
#747 = CARTESIAN_POINT('',(-67.43832916788,96.6,75.78881081477));
#748 = CARTESIAN_POINT('',(-67.42583077581,96.6,75.864103036347));
#749 = CARTESIAN_POINT('',(-67.41195559119,96.6,75.939153737118));
#750 = CARTESIAN_POINT('',(-67.39670962081,96.6,76.013931500851));
#751 = CARTESIAN_POINT('',(-67.36349004553,96.6,76.162878659194));
#752 = CARTESIAN_POINT('',(-67.34551643494,96.6,76.237048079334));
#753 = CARTESIAN_POINT('',(-67.32618597105,96.6,76.310882093177));
#754 = CARTESIAN_POINT('',(-67.3055065658,96.6,76.384349709395));
#755 = CARTESIAN_POINT('',(-67.28348707338,96.6,76.457420192598));
#756 = CARTESIAN_POINT('',(-67.23759267195,96.6,76.600201007906));
#757 = CARTESIAN_POINT('',(-67.21380791826,96.6,76.66994034413));
#758 = CARTESIAN_POINT('',(-67.1887918472,96.6,76.739253640111));
#759 = CARTESIAN_POINT('',(-67.16255407234,96.6,76.808113759059));
#760 = CARTESIAN_POINT('',(-67.13510500281,96.6,76.876493859286));
#761 = CARTESIAN_POINT('',(-67.0767834997,96.6,77.014664983537));
#762 = CARTESIAN_POINT('',(-67.04582380499,96.6,77.08441920108));
#763 = CARTESIAN_POINT('',(-67.01358920954,96.6,77.153600551826));
#764 = CARTESIAN_POINT('',(-66.98009304499,96.6,77.222179961229));
#765 = CARTESIAN_POINT('',(-66.94534952416,96.6,77.290128775216));
#766 = CARTESIAN_POINT('',(-66.87339795813,96.6,77.424708745149));
#767 = CARTESIAN_POINT('',(-66.8361899006,96.6,77.491339924161));
#768 = CARTESIAN_POINT('',(-66.79776466369,96.6,77.557284064177));
#769 = CARTESIAN_POINT('',(-66.75813818162,96.6,77.622513431436));
#770 = CARTESIAN_POINT('',(-66.71732722772,96.6,77.687000791466));
#771 = CARTESIAN_POINT('',(-66.6406091543,96.6,77.803452059404));
#772 = CARTESIAN_POINT('',(-66.60506970576,96.6,77.855658210627));
#773 = CARTESIAN_POINT('',(-66.56874104935,96.6,77.907322713497));
#774 = CARTESIAN_POINT('',(-66.53163353827,96.6,77.958430685034));
#775 = CARTESIAN_POINT('',(-66.49375789836,96.6,78.008967508527));
#776 = CARTESIAN_POINT('',(-66.40844408595,96.6,78.119276683149));
#777 = CARTESIAN_POINT('',(-66.3606576143,96.6,78.178779680466));
#778 = CARTESIAN_POINT('',(-66.31178539995,96.6,78.237402501094));
#779 = CARTESIAN_POINT('',(-66.2618477739,96.6,78.295120452708));
#780 = CARTESIAN_POINT('',(-66.21086581138,96.6,78.351909475057));
#781 = CARTESIAN_POINT('',(-66.1194096565,96.6,78.450104990476));
#782 = CARTESIAN_POINT('',(-66.07936950983,96.6,78.491915762148));
#783 = CARTESIAN_POINT('',(-66.03875041461,96.6,78.53316823063));
#784 = CARTESIAN_POINT('',(-65.99756212246,96.6,78.573852400057));
#785 = CARTESIAN_POINT('',(-65.95581461383,96.6,78.613958503038));
#786 = CARTESIAN_POINT('',(-65.86737644472,96.6,78.696588088712));
#787 = CARTESIAN_POINT('',(-65.82058142091,96.6,78.738999883948));
#788 = CARTESIAN_POINT('',(-65.7731462826,96.6,78.780700001295));
#789 = CARTESIAN_POINT('',(-65.72508458555,96.6,78.821676401937));
#790 = CARTESIAN_POINT('',(-65.67641018529,96.6,78.861917393319));
#791 = CARTESIAN_POINT('',(-65.59018252549,96.6,78.931032306451));
#792 = CARTESIAN_POINT('',(-65.5528911275,96.6,78.960232936312));
#793 = CARTESIAN_POINT('',(-65.51526901339,96.6,78.989008733398));
#794 = CARTESIAN_POINT('',(-65.47732224078,96.6,79.017355027973));
#795 = CARTESIAN_POINT('',(-65.43905695465,96.6,79.045267265899));
#796 = CARTESIAN_POINT('',(-64.98045007423,96.6,79.371872812565));
#797 = CARTESIAN_POINT('',(-64.52326177521,96.6,79.619120720268));
#798 = CARTESIAN_POINT('',(-64.03722882015,96.6,79.808473736095));
#799 = CARTESIAN_POINT('',(-63.53148864675,96.6,79.93618229111));
#800 = CARTESIAN_POINT('',(-63.01565924797,96.6,80.));
#801 = CARTESIAN_POINT('',(-62.5,96.6,80.));
#802 = PCURVE('',#418,#803);
#803 = DEFINITIONAL_REPRESENTATION('',(#804),#1147);
#804 = B_SPLINE_CURVE_WITH_KNOTS('',6,(#805,#806,#807,#808,#809,#810,
    #811,#812,#813,#814,#815,#816,#817,#818,#819,#820,#821,#822,#823,
    #824,#825,#826,#827,#828,#829,#830,#831,#832,#833,#834,#835,#836,
    #837,#838,#839,#840,#841,#842,#843,#844,#845,#846,#847,#848,#849,
    #850,#851,#852,#853,#854,#855,#856,#857,#858,#859,#860,#861,#862,
    #863,#864,#865,#866,#867,#868,#869,#870,#871,#872,#873,#874,#875,
    #876,#877,#878,#879,#880,#881,#882,#883,#884,#885,#886,#887,#888,
    #889,#890,#891,#892,#893,#894,#895,#896,#897,#898,#899,#900,#901,
    #902,#903,#904,#905,#906,#907,#908,#909,#910,#911,#912,#913,#914,
    #915,#916,#917,#918,#919,#920,#921,#922,#923,#924,#925,#926,#927,
    #928,#929,#930,#931,#932,#933,#934,#935,#936,#937,#938,#939,#940,
    #941,#942,#943,#944,#945,#946,#947,#948,#949,#950,#951,#952,#953,
    #954,#955,#956,#957,#958,#959,#960,#961,#962,#963,#964,#965,#966,
    #967,#968,#969,#970,#971,#972,#973,#974,#975,#976,#977,#978,#979,
    #980,#981,#982,#983,#984,#985,#986,#987,#988,#989,#990,#991,#992,
    #993,#994,#995,#996,#997,#998,#999,#1000,#1001,#1002,#1003,#1004,
    #1005,#1006,#1007,#1008,#1009,#1010,#1011,#1012,#1013,#1014,#1015,
    #1016,#1017,#1018,#1019,#1020,#1021,#1022,#1023,#1024,#1025,#1026,
    #1027,#1028,#1029,#1030,#1031,#1032,#1033,#1034,#1035,#1036,#1037,
    #1038,#1039,#1040,#1041,#1042,#1043,#1044,#1045,#1046,#1047,#1048,
    #1049,#1050,#1051,#1052,#1053,#1054,#1055,#1056,#1057,#1058,#1059,
    #1060,#1061,#1062,#1063,#1064,#1065,#1066,#1067,#1068,#1069,#1070,
    #1071,#1072,#1073,#1074,#1075,#1076,#1077,#1078,#1079,#1080,#1081,
    #1082,#1083,#1084,#1085,#1086,#1087,#1088,#1089,#1090,#1091,#1092,
    #1093,#1094,#1095,#1096,#1097,#1098,#1099,#1100,#1101,#1102,#1103,
    #1104,#1105,#1106,#1107,#1108,#1109,#1110,#1111,#1112,#1113,#1114,
    #1115,#1116,#1117,#1118,#1119,#1120,#1121,#1122,#1123,#1124,#1125,
    #1126,#1127,#1128,#1129,#1130,#1131,#1132,#1133,#1134,#1135,#1136,
    #1137,#1138,#1139,#1140,#1141,#1142,#1143,#1144,#1145,#1146),
  .UNSPECIFIED.,.F.,.F.,(7,5,5,5,5,5,5,5,5,5,5,5,5,5,5,5,5,5,5,5,5,5,5,5
    ,5,5,5,5,5,5,5,5,5,5,5,5,5,5,5,5,5,5,5,5,5,5,5,5,5,5,5,5,5,5,5,5,5,5
    ,5,5,5,5,5,5,5,5,5,5,7),(0.,1.206019280172E-02,2.663318843414E-02,
    4.020115003753E-02,5.477414566995E-02,6.934714130236E-02,
    8.392013693476E-02,9.547803033835E-02,0.107538440806,0.122111436439,
    0.136684432071,0.148242325475,0.160805252998,0.173368180522,
    0.182413488504,0.191961313581,0.207036826205,0.215077099988,
    0.232665197272,0.251258328244,0.266333840868,0.281409353492,
    0.292967246896,0.314072961463,0.328645957095,0.341208884619,
    0.352766778023,0.364827188491,0.378395150094,0.392968145727,
    0.40653610733,0.421109102962,0.432164479294,0.444727406817,
    0.457290334341,0.471863329974,0.485933808599,0.499501770202,
    0.514074765834,0.528145244459,0.542215723084,0.556788718717,
    0.571361714349,0.585934709982,0.599000154551,0.612568116154,
    0.628146145753,0.642216624378,0.655282068947,0.66985506458,
    0.682920509149,0.695985953718,0.7050312617,0.719604257333,
    0.729152082409,0.743725078042,0.756288005566,0.77035848419,
    0.784931479823,0.799504475455,0.81357495408,0.828147949713,
    0.842720945345,0.854781355813,0.869354351446,0.880409727777,
    0.892470138245,0.901515446227,1.),.UNSPECIFIED.);
#805 = CARTESIAN_POINT('',(2.84217094304E-15,-3.));
#806 = CARTESIAN_POINT('',(1.263052123745E-02,-3.));
#807 = CARTESIAN_POINT('',(2.525999340585E-02,-3.));
#808 = CARTESIAN_POINT('',(3.788915584155E-02,-3.));
#809 = CARTESIAN_POINT('',(5.051840995533E-02,-3.));
#810 = CARTESIAN_POINT('',(6.314781923239E-02,-3.));
#811 = CARTESIAN_POINT('',(9.103777637383E-02,-3.));
#812 = CARTESIAN_POINT('',(0.106298444343,-3.));
#813 = CARTESIAN_POINT('',(0.121559112727,-3.));
#814 = CARTESIAN_POINT('',(0.13681978111,-3.));
#815 = CARTESIAN_POINT('',(0.15208044908,-3.));
#816 = CARTESIAN_POINT('',(0.18154932372,-3.));
#817 = CARTESIAN_POINT('',(0.195757531797,-3.));
#818 = CARTESIAN_POINT('',(0.209965740165,-3.));
#819 = CARTESIAN_POINT('',(0.224173948532,-3.));
#820 = CARTESIAN_POINT('',(0.238382156609,-3.));
#821 = CARTESIAN_POINT('',(0.267851031249,-3.));
#822 = CARTESIAN_POINT('',(0.283111699219,-3.));
#823 = CARTESIAN_POINT('',(0.298372367602,-3.));
#824 = CARTESIAN_POINT('',(0.313633035986,-3.));
#825 = CARTESIAN_POINT('',(0.328893703955,-3.));
#826 = CARTESIAN_POINT('',(0.359415038238,-3.));
#827 = CARTESIAN_POINT('',(0.374675706208,-3.));
#828 = CARTESIAN_POINT('',(0.389936374591,-3.));
#829 = CARTESIAN_POINT('',(0.405197042975,-3.));
#830 = CARTESIAN_POINT('',(0.420457710944,-3.));
#831 = CARTESIAN_POINT('',(0.450979045227,-3.));
#832 = CARTESIAN_POINT('',(0.466239713197,-3.));
#833 = CARTESIAN_POINT('',(0.48150038158,-3.));
#834 = CARTESIAN_POINT('',(0.496761049964,-3.));
#835 = CARTESIAN_POINT('',(0.512021717933,-3.));
#836 = CARTESIAN_POINT('',(0.539385673139,-3.));
#837 = CARTESIAN_POINT('',(0.551488961462,-3.));
#838 = CARTESIAN_POINT('',(0.563592249915,-3.));
#839 = CARTESIAN_POINT('',(0.575695538369,-3.));
#840 = CARTESIAN_POINT('',(0.587798826692,-3.));
#841 = CARTESIAN_POINT('',(0.612531632693,-3.));
#842 = CARTESIAN_POINT('',(0.625161150952,-3.));
#843 = CARTESIAN_POINT('',(0.637790669372,-3.));
#844 = CARTESIAN_POINT('',(0.650420187792,-3.));
#845 = CARTESIAN_POINT('',(0.663049706051,-3.));
#846 = CARTESIAN_POINT('',(0.69093989113,-3.));
#847 = CARTESIAN_POINT('',(0.706200559099,-3.));
#848 = CARTESIAN_POINT('',(0.721461227483,-3.));
#849 = CARTESIAN_POINT('',(0.736721895866,-3.));
#850 = CARTESIAN_POINT('',(0.751982563836,-3.));
#851 = CARTESIAN_POINT('',(0.782503898119,-3.));
#852 = CARTESIAN_POINT('',(0.797764566088,-3.));
#853 = CARTESIAN_POINT('',(0.813025234472,-3.));
#854 = CARTESIAN_POINT('',(0.828285902855,-3.));
#855 = CARTESIAN_POINT('',(0.843546570825,-3.));
#856 = CARTESIAN_POINT('',(0.87091052603,-3.));
#857 = CARTESIAN_POINT('',(0.883013814353,-3.));
#858 = CARTESIAN_POINT('',(0.895117102807,-3.));
#859 = CARTESIAN_POINT('',(0.90722039126,-3.));
#860 = CARTESIAN_POINT('',(0.919323679584,-3.));
#861 = CARTESIAN_POINT('',(0.944582715449,-3.));
#862 = CARTESIAN_POINT('',(0.957738463646,-3.));
#863 = CARTESIAN_POINT('',(0.970894212039,-3.));
#864 = CARTESIAN_POINT('',(0.984049960432,-3.));
#865 = CARTESIAN_POINT('',(0.997205708629,-3.));
#866 = CARTESIAN_POINT('',(1.023517204233,-3.));
#867 = CARTESIAN_POINT('',(1.036672952429,-3.));
#868 = CARTESIAN_POINT('',(1.049828700823,-3.));
#869 = CARTESIAN_POINT('',(1.062984449216,-3.));
#870 = CARTESIAN_POINT('',(1.076140197412,-3.));
#871 = CARTESIAN_POINT('',(1.098768083805,-3.));
#872 = CARTESIAN_POINT('',(1.108240222472,-3.));
#873 = CARTESIAN_POINT('',(1.117712361177,-3.));
#874 = CARTESIAN_POINT('',(1.127184499882,-3.));
#875 = CARTESIAN_POINT('',(1.136656638548,-3.));
#876 = CARTESIAN_POINT('',(1.156127145635,-3.));
#877 = CARTESIAN_POINT('',(1.166125514231,-3.));
#878 = CARTESIAN_POINT('',(1.176123882877,-3.));
#879 = CARTESIAN_POINT('',(1.186122251522,-3.));
#880 = CARTESIAN_POINT('',(1.196120620118,-3.));
#881 = CARTESIAN_POINT('',(1.221905885554,-3.));
#882 = CARTESIAN_POINT('',(1.237692783474,-3.));
#883 = CARTESIAN_POINT('',(1.253479681885,-3.));
#884 = CARTESIAN_POINT('',(1.269266580295,-3.));
#885 = CARTESIAN_POINT('',(1.285053478216,-3.));
#886 = CARTESIAN_POINT('',(1.309260053923,-3.));
#887 = CARTESIAN_POINT('',(1.317679732734,-3.));
#888 = CARTESIAN_POINT('',(1.326099411566,-3.));
#889 = CARTESIAN_POINT('',(1.334519090397,-3.));
#890 = CARTESIAN_POINT('',(1.342938769208,-3.));
#891 = CARTESIAN_POINT('',(1.369776493592,-3.));
#892 = CARTESIAN_POINT('',(1.388194541328,-3.));
#893 = CARTESIAN_POINT('',(1.406612590125,-3.));
#894 = CARTESIAN_POINT('',(1.425030638921,-3.));
#895 = CARTESIAN_POINT('',(1.443448686658,-3.));
#896 = CARTESIAN_POINT('',(1.481337237174,-3.));
#897 = CARTESIAN_POINT('',(1.500807744874,-3.));
#898 = CARTESIAN_POINT('',(1.520278253973,-3.));
#899 = CARTESIAN_POINT('',(1.539748763073,-3.));
#900 = CARTESIAN_POINT('',(1.559219270773,-3.));
#901 = CARTESIAN_POINT('',(1.594476672613,-3.));
#902 = CARTESIAN_POINT('',(1.610263570533,-3.));
#903 = CARTESIAN_POINT('',(1.626050468943,-3.));
#904 = CARTESIAN_POINT('',(1.641837367354,-3.));
#905 = CARTESIAN_POINT('',(1.657624265274,-3.));
#906 = CARTESIAN_POINT('',(1.689198059153,-3.));
#907 = CARTESIAN_POINT('',(1.704984957073,-3.));
#908 = CARTESIAN_POINT('',(1.720771855484,-3.));
#909 = CARTESIAN_POINT('',(1.736558753895,-3.));
#910 = CARTESIAN_POINT('',(1.752345651815,-3.));
#911 = CARTESIAN_POINT('',(1.780235836818,-3.));
#912 = CARTESIAN_POINT('',(1.792339125141,-3.));
#913 = CARTESIAN_POINT('',(1.804442413595,-3.));
#914 = CARTESIAN_POINT('',(1.816545702048,-3.));
#915 = CARTESIAN_POINT('',(1.828648990371,-3.));
#916 = CARTESIAN_POINT('',(1.862853930897,-3.));
#917 = CARTESIAN_POINT('',(1.884955588636,-3.));
#918 = CARTESIAN_POINT('',(1.907057249013,-3.));
#919 = CARTESIAN_POINT('',(1.929158909391,-3.));
#920 = CARTESIAN_POINT('',(1.95126056713,-3.));
#921 = CARTESIAN_POINT('',(1.988622886733,-3.));
#922 = CARTESIAN_POINT('',(2.003883554703,-3.));
#923 = CARTESIAN_POINT('',(2.019144223086,-3.));
#924 = CARTESIAN_POINT('',(2.03440489147,-3.));
#925 = CARTESIAN_POINT('',(2.049665559439,-3.));
#926 = CARTESIAN_POINT('',(2.078081974383,-3.));
#927 = CARTESIAN_POINT('',(2.091237722579,-3.));
#928 = CARTESIAN_POINT('',(2.104393470972,-3.));
#929 = CARTESIAN_POINT('',(2.117549219366,-3.));
#930 = CARTESIAN_POINT('',(2.130704967562,-3.));
#931 = CARTESIAN_POINT('',(2.155964003428,-3.));
#932 = CARTESIAN_POINT('',(2.168067291751,-3.));
#933 = CARTESIAN_POINT('',(2.180170580205,-3.));
#934 = CARTESIAN_POINT('',(2.192273868658,-3.));
#935 = CARTESIAN_POINT('',(2.204377156982,-3.));
#936 = CARTESIAN_POINT('',(2.229109962983,-3.));
#937 = CARTESIAN_POINT('',(2.241739481242,-3.));
#938 = CARTESIAN_POINT('',(2.254368999661,-3.));
#939 = CARTESIAN_POINT('',(2.266998518081,-3.));
#940 = CARTESIAN_POINT('',(2.27962803634,-3.));
#941 = CARTESIAN_POINT('',(2.306465761776,-3.));
#942 = CARTESIAN_POINT('',(2.320673969854,-3.));
#943 = CARTESIAN_POINT('',(2.334882178221,-3.));
#944 = CARTESIAN_POINT('',(2.349090386588,-3.));
#945 = CARTESIAN_POINT('',(2.363298594666,-3.));
#946 = CARTESIAN_POINT('',(2.392767469305,-3.));
#947 = CARTESIAN_POINT('',(2.408028137275,-3.));
#948 = CARTESIAN_POINT('',(2.423288805658,-3.));
#949 = CARTESIAN_POINT('',(2.438549474042,-3.));
#950 = CARTESIAN_POINT('',(2.453810142011,-3.));
#951 = CARTESIAN_POINT('',(2.483279016651,-3.));
#952 = CARTESIAN_POINT('',(2.497487224729,-3.));
#953 = CARTESIAN_POINT('',(2.511695433096,-3.));
#954 = CARTESIAN_POINT('',(2.525903641463,-3.));
#955 = CARTESIAN_POINT('',(2.540111849541,-3.));
#956 = CARTESIAN_POINT('',(2.569580724181,-3.));
#957 = CARTESIAN_POINT('',(2.58484139215,-3.));
#958 = CARTESIAN_POINT('',(2.600102060534,-3.));
#959 = CARTESIAN_POINT('',(2.615362728917,-3.));
#960 = CARTESIAN_POINT('',(2.630623396887,-3.));
#961 = CARTESIAN_POINT('',(2.65746112221,-3.));
#962 = CARTESIAN_POINT('',(2.6690381806,-3.));
#963 = CARTESIAN_POINT('',(2.680615239093,-3.));
#964 = CARTESIAN_POINT('',(2.692192297587,-3.));
#965 = CARTESIAN_POINT('',(2.703769355976,-3.));
#966 = CARTESIAN_POINT('',(2.72850216196,-3.));
#967 = CARTESIAN_POINT('',(2.741657910156,-3.));
#968 = CARTESIAN_POINT('',(2.75481365855,-3.));
#969 = CARTESIAN_POINT('',(2.767969406943,-3.));
#970 = CARTESIAN_POINT('',(2.78112515514,-3.));
#971 = CARTESIAN_POINT('',(2.807436650744,-3.));
#972 = CARTESIAN_POINT('',(2.82059239894,-3.));
#973 = CARTESIAN_POINT('',(2.833748147334,-3.));
#974 = CARTESIAN_POINT('',(2.846903895727,-3.));
#975 = CARTESIAN_POINT('',(2.860059643923,-3.));
#976 = CARTESIAN_POINT('',(2.888476058867,-3.));
#977 = CARTESIAN_POINT('',(2.903736726836,-3.));
#978 = CARTESIAN_POINT('',(2.91899739522,-3.));
#979 = CARTESIAN_POINT('',(2.934258063603,-3.));
#980 = CARTESIAN_POINT('',(2.949518731573,-3.));
#981 = CARTESIAN_POINT('',(2.979513836042,-3.));
#982 = CARTESIAN_POINT('',(2.994248274064,-3.));
#983 = CARTESIAN_POINT('',(3.008982712433,-3.));
#984 = CARTESIAN_POINT('',(3.023717150803,-3.));
#985 = CARTESIAN_POINT('',(3.038451588825,-3.));
#986 = CARTESIAN_POINT('',(3.06739423365,-3.));
#987 = CARTESIAN_POINT('',(3.081602441728,-3.));
#988 = CARTESIAN_POINT('',(3.095810650095,-3.));
#989 = CARTESIAN_POINT('',(3.110018858462,-3.));
#990 = CARTESIAN_POINT('',(3.12422706654,-3.));
#991 = CARTESIAN_POINT('',(3.15369594118,-3.));
#992 = CARTESIAN_POINT('',(3.168956609149,-3.));
#993 = CARTESIAN_POINT('',(3.184217277533,-3.));
#994 = CARTESIAN_POINT('',(3.199477945916,-3.));
#995 = CARTESIAN_POINT('',(3.214738613886,-3.));
#996 = CARTESIAN_POINT('',(3.244733718355,-3.));
#997 = CARTESIAN_POINT('',(3.259468156377,-3.));
#998 = CARTESIAN_POINT('',(3.274202594746,-3.));
#999 = CARTESIAN_POINT('',(3.288937033116,-3.));
#1000 = CARTESIAN_POINT('',(3.303671471138,-3.));
#1001 = CARTESIAN_POINT('',(3.333140345793,-3.));
#1002 = CARTESIAN_POINT('',(3.347874783815,-3.));
#1003 = CARTESIAN_POINT('',(3.362609222184,-3.));
#1004 = CARTESIAN_POINT('',(3.377343660554,-3.));
#1005 = CARTESIAN_POINT('',(3.392078098576,-3.));
#1006 = CARTESIAN_POINT('',(3.422073203044,-3.));
#1007 = CARTESIAN_POINT('',(3.437333871014,-3.));
#1008 = CARTESIAN_POINT('',(3.452594539397,-3.));
#1009 = CARTESIAN_POINT('',(3.467855207781,-3.));
#1010 = CARTESIAN_POINT('',(3.48311587575,-3.));
#1011 = CARTESIAN_POINT('',(3.513637210033,-3.));
#1012 = CARTESIAN_POINT('',(3.528897878003,-3.));
#1013 = CARTESIAN_POINT('',(3.544158546387,-3.));
#1014 = CARTESIAN_POINT('',(3.55941921477,-3.));
#1015 = CARTESIAN_POINT('',(3.57467988274,-3.));
#1016 = CARTESIAN_POINT('',(3.605201217023,-3.));
#1017 = CARTESIAN_POINT('',(3.620461884992,-3.));
#1018 = CARTESIAN_POINT('',(3.635722553376,-3.));
#1019 = CARTESIAN_POINT('',(3.650983221759,-3.));
#1020 = CARTESIAN_POINT('',(3.666243889729,-3.));
#1021 = CARTESIAN_POINT('',(3.695186534526,-3.));
#1022 = CARTESIAN_POINT('',(3.708868512662,-3.));
#1023 = CARTESIAN_POINT('',(3.722550491038,-3.));
#1024 = CARTESIAN_POINT('',(3.736232469413,-3.));
#1025 = CARTESIAN_POINT('',(3.749914447549,-3.));
#1026 = CARTESIAN_POINT('',(3.777804632703,-3.));
#1027 = CARTESIAN_POINT('',(3.792012840781,-3.));
#1028 = CARTESIAN_POINT('',(3.806221049148,-3.));
#1029 = CARTESIAN_POINT('',(3.820429257515,-3.));
#1030 = CARTESIAN_POINT('',(3.834637465593,-3.));
#1031 = CARTESIAN_POINT('',(3.86515879981,-3.));
#1032 = CARTESIAN_POINT('',(3.881471927685,-3.));
#1033 = CARTESIAN_POINT('',(3.897785056137,-3.));
#1034 = CARTESIAN_POINT('',(3.91409818459,-3.));
#1035 = CARTESIAN_POINT('',(3.930411312464,-3.));
#1036 = CARTESIAN_POINT('',(3.961458876511,-3.));
#1037 = CARTESIAN_POINT('',(3.976193314533,-3.));
#1038 = CARTESIAN_POINT('',(3.990927752902,-3.));
#1039 = CARTESIAN_POINT('',(4.005662191272,-3.));
#1040 = CARTESIAN_POINT('',(4.020396629294,-3.));
#1041 = CARTESIAN_POINT('',(4.048813044277,-3.));
#1042 = CARTESIAN_POINT('',(4.062495022413,-3.));
#1043 = CARTESIAN_POINT('',(4.076177000788,-3.));
#1044 = CARTESIAN_POINT('',(4.089858979164,-3.));
#1045 = CARTESIAN_POINT('',(4.1035409573,-3.));
#1046 = CARTESIAN_POINT('',(4.132483602097,-3.));
#1047 = CARTESIAN_POINT('',(4.147744270067,-3.));
#1048 = CARTESIAN_POINT('',(4.16300493845,-3.));
#1049 = CARTESIAN_POINT('',(4.178265606834,-3.));
#1050 = CARTESIAN_POINT('',(4.193526274803,-3.));
#1051 = CARTESIAN_POINT('',(4.222468919601,-3.));
#1052 = CARTESIAN_POINT('',(4.236150897737,-3.));
#1053 = CARTESIAN_POINT('',(4.249832876112,-3.));
#1054 = CARTESIAN_POINT('',(4.263514854488,-3.));
#1055 = CARTESIAN_POINT('',(4.277196832624,-3.));
#1056 = CARTESIAN_POINT('',(4.304560787936,-3.));
#1057 = CARTESIAN_POINT('',(4.318242766072,-3.));
#1058 = CARTESIAN_POINT('',(4.331924744447,-3.));
#1059 = CARTESIAN_POINT('',(4.345606722823,-3.));
#1060 = CARTESIAN_POINT('',(4.359288700959,-3.));
#1061 = CARTESIAN_POINT('',(4.382442817205,-3.));
#1062 = CARTESIAN_POINT('',(4.391914955872,-3.));
#1063 = CARTESIAN_POINT('',(4.401387094577,-3.));
#1064 = CARTESIAN_POINT('',(4.410859233282,-3.));
#1065 = CARTESIAN_POINT('',(4.420331371949,-3.));
#1066 = CARTESIAN_POINT('',(4.445064177681,-3.));
#1067 = CARTESIAN_POINT('',(4.46032484565,-3.));
#1068 = CARTESIAN_POINT('',(4.475585514034,-3.));
#1069 = CARTESIAN_POINT('',(4.490846182417,-3.));
#1070 = CARTESIAN_POINT('',(4.506106850387,-3.));
#1071 = CARTESIAN_POINT('',(4.531365886024,-3.));
#1072 = CARTESIAN_POINT('',(4.54136425462,-3.));
#1073 = CARTESIAN_POINT('',(4.551362623266,-3.));
#1074 = CARTESIAN_POINT('',(4.561360991912,-3.));
#1075 = CARTESIAN_POINT('',(4.571359360508,-3.));
#1076 = CARTESIAN_POINT('',(4.596618396145,-3.));
#1077 = CARTESIAN_POINT('',(4.611879064115,-3.));
#1078 = CARTESIAN_POINT('',(4.627139732498,-3.));
#1079 = CARTESIAN_POINT('',(4.642400400882,-3.));
#1080 = CARTESIAN_POINT('',(4.657661068851,-3.));
#1081 = CARTESIAN_POINT('',(4.686077483795,-3.));
#1082 = CARTESIAN_POINT('',(4.699233231991,-3.));
#1083 = CARTESIAN_POINT('',(4.712388980385,-3.));
#1084 = CARTESIAN_POINT('',(4.725544728778,-3.));
#1085 = CARTESIAN_POINT('',(4.738700476974,-3.));
#1086 = CARTESIAN_POINT('',(4.766590662104,-3.));
#1087 = CARTESIAN_POINT('',(4.781325100126,-3.));
#1088 = CARTESIAN_POINT('',(4.796059538495,-3.));
#1089 = CARTESIAN_POINT('',(4.810793976865,-3.));
#1090 = CARTESIAN_POINT('',(4.825528414887,-3.));
#1091 = CARTESIAN_POINT('',(4.855523519356,-3.));
#1092 = CARTESIAN_POINT('',(4.870784187325,-3.));
#1093 = CARTESIAN_POINT('',(4.886044855709,-3.));
#1094 = CARTESIAN_POINT('',(4.901305524092,-3.));
#1095 = CARTESIAN_POINT('',(4.916566192062,-3.));
#1096 = CARTESIAN_POINT('',(4.947087526345,-3.));
#1097 = CARTESIAN_POINT('',(4.962348194314,-3.));
#1098 = CARTESIAN_POINT('',(4.977608862698,-3.));
#1099 = CARTESIAN_POINT('',(4.992869531081,-3.));
#1100 = CARTESIAN_POINT('',(5.008130199051,-3.));
#1101 = CARTESIAN_POINT('',(5.03812530352,-3.));
#1102 = CARTESIAN_POINT('',(5.052859741542,-3.));
#1103 = CARTESIAN_POINT('',(5.067594179911,-3.));
#1104 = CARTESIAN_POINT('',(5.082328618281,-3.));
#1105 = CARTESIAN_POINT('',(5.097063056303,-3.));
#1106 = CARTESIAN_POINT('',(5.127058160772,-3.));
#1107 = CARTESIAN_POINT('',(5.142318828741,-3.));
#1108 = CARTESIAN_POINT('',(5.157579497125,-3.));
#1109 = CARTESIAN_POINT('',(5.172840165508,-3.));
#1110 = CARTESIAN_POINT('',(5.188100833478,-3.));
#1111 = CARTESIAN_POINT('',(5.218622167761,-3.));
#1112 = CARTESIAN_POINT('',(5.23388283573,-3.));
#1113 = CARTESIAN_POINT('',(5.249143504114,-3.));
#1114 = CARTESIAN_POINT('',(5.264404172497,-3.));
#1115 = CARTESIAN_POINT('',(5.279664840467,-3.));
#1116 = CARTESIAN_POINT('',(5.307555025546,-3.));
#1117 = CARTESIAN_POINT('',(5.320184543805,-3.));
#1118 = CARTESIAN_POINT('',(5.332814062224,-3.));
#1119 = CARTESIAN_POINT('',(5.345443580644,-3.));
#1120 = CARTESIAN_POINT('',(5.358073098903,-3.));
#1121 = CARTESIAN_POINT('',(5.385963283982,-3.));
#1122 = CARTESIAN_POINT('',(5.401223951952,-3.));
#1123 = CARTESIAN_POINT('',(5.416484620335,-3.));
#1124 = CARTESIAN_POINT('',(5.431745288719,-3.));
#1125 = CARTESIAN_POINT('',(5.447005956688,-3.));
#1126 = CARTESIAN_POINT('',(5.473843682011,-3.));
#1127 = CARTESIAN_POINT('',(5.485420740401,-3.));
#1128 = CARTESIAN_POINT('',(5.496997798894,-3.));
#1129 = CARTESIAN_POINT('',(5.508574857388,-3.));
#1130 = CARTESIAN_POINT('',(5.520151915778,-3.));
#1131 = CARTESIAN_POINT('',(5.544358491897,-3.));
#1132 = CARTESIAN_POINT('',(5.556988010156,-3.));
#1133 = CARTESIAN_POINT('',(5.569617528575,-3.));
#1134 = CARTESIAN_POINT('',(5.582247046995,-3.));
#1135 = CARTESIAN_POINT('',(5.594876565254,-3.));
#1136 = CARTESIAN_POINT('',(5.616978221782,-3.));
#1137 = CARTESIAN_POINT('',(5.626450360449,-3.));
#1138 = CARTESIAN_POINT('',(5.635922499154,-3.));
#1139 = CARTESIAN_POINT('',(5.645394637859,-3.));
#1140 = CARTESIAN_POINT('',(5.654866776525,-3.));
#1141 = CARTESIAN_POINT('',(5.76747076471,-3.));
#1142 = CARTESIAN_POINT('',(5.870635886575,-3.));
#1143 = CARTESIAN_POINT('',(5.973762111148,-3.));
#1144 = CARTESIAN_POINT('',(6.07688833572,-3.));
#1145 = CARTESIAN_POINT('',(6.180053457585,-3.));
#1146 = CARTESIAN_POINT('',(6.28318530718,-3.));
#1147 = ( GEOMETRIC_REPRESENTATION_CONTEXT(2) 
PARAMETRIC_REPRESENTATION_CONTEXT() REPRESENTATION_CONTEXT('2D SPACE',''
  ) );
#1148 = PCURVE('',#1149,#1154);
#1149 = CYLINDRICAL_SURFACE('',#1150,5.);
#1150 = AXIS2_PLACEMENT_3D('',#1151,#1152,#1153);
#1151 = CARTESIAN_POINT('',(-62.5,98.39218452154,75.));
#1152 = DIRECTION('',(0.,1.,0.));
#1153 = DIRECTION('',(0.,0.,1.));
#1154 = DEFINITIONAL_REPRESENTATION('',(#1155),#1498);
#1155 = B_SPLINE_CURVE_WITH_KNOTS('',6,(#1156,#1157,#1158,#1159,#1160,
    #1161,#1162,#1163,#1164,#1165,#1166,#1167,#1168,#1169,#1170,#1171,
    #1172,#1173,#1174,#1175,#1176,#1177,#1178,#1179,#1180,#1181,#1182,
    #1183,#1184,#1185,#1186,#1187,#1188,#1189,#1190,#1191,#1192,#1193,
    #1194,#1195,#1196,#1197,#1198,#1199,#1200,#1201,#1202,#1203,#1204,
    #1205,#1206,#1207,#1208,#1209,#1210,#1211,#1212,#1213,#1214,#1215,
    #1216,#1217,#1218,#1219,#1220,#1221,#1222,#1223,#1224,#1225,#1226,
    #1227,#1228,#1229,#1230,#1231,#1232,#1233,#1234,#1235,#1236,#1237,
    #1238,#1239,#1240,#1241,#1242,#1243,#1244,#1245,#1246,#1247,#1248,
    #1249,#1250,#1251,#1252,#1253,#1254,#1255,#1256,#1257,#1258,#1259,
    #1260,#1261,#1262,#1263,#1264,#1265,#1266,#1267,#1268,#1269,#1270,
    #1271,#1272,#1273,#1274,#1275,#1276,#1277,#1278,#1279,#1280,#1281,
    #1282,#1283,#1284,#1285,#1286,#1287,#1288,#1289,#1290,#1291,#1292,
    #1293,#1294,#1295,#1296,#1297,#1298,#1299,#1300,#1301,#1302,#1303,
    #1304,#1305,#1306,#1307,#1308,#1309,#1310,#1311,#1312,#1313,#1314,
    #1315,#1316,#1317,#1318,#1319,#1320,#1321,#1322,#1323,#1324,#1325,
    #1326,#1327,#1328,#1329,#1330,#1331,#1332,#1333,#1334,#1335,#1336,
    #1337,#1338,#1339,#1340,#1341,#1342,#1343,#1344,#1345,#1346,#1347,
    #1348,#1349,#1350,#1351,#1352,#1353,#1354,#1355,#1356,#1357,#1358,
    #1359,#1360,#1361,#1362,#1363,#1364,#1365,#1366,#1367,#1368,#1369,
    #1370,#1371,#1372,#1373,#1374,#1375,#1376,#1377,#1378,#1379,#1380,
    #1381,#1382,#1383,#1384,#1385,#1386,#1387,#1388,#1389,#1390,#1391,
    #1392,#1393,#1394,#1395,#1396,#1397,#1398,#1399,#1400,#1401,#1402,
    #1403,#1404,#1405,#1406,#1407,#1408,#1409,#1410,#1411,#1412,#1413,
    #1414,#1415,#1416,#1417,#1418,#1419,#1420,#1421,#1422,#1423,#1424,
    #1425,#1426,#1427,#1428,#1429,#1430,#1431,#1432,#1433,#1434,#1435,
    #1436,#1437,#1438,#1439,#1440,#1441,#1442,#1443,#1444,#1445,#1446,
    #1447,#1448,#1449,#1450,#1451,#1452,#1453,#1454,#1455,#1456,#1457,
    #1458,#1459,#1460,#1461,#1462,#1463,#1464,#1465,#1466,#1467,#1468,
    #1469,#1470,#1471,#1472,#1473,#1474,#1475,#1476,#1477,#1478,#1479,
    #1480,#1481,#1482,#1483,#1484,#1485,#1486,#1487,#1488,#1489,#1490,
    #1491,#1492,#1493,#1494,#1495,#1496,#1497),.UNSPECIFIED.,.F.,.F.,(7,
    5,5,5,5,5,5,5,5,5,5,5,5,5,5,5,5,5,5,5,5,5,5,5,5,5,5,5,5,5,5,5,5,5,5,
    5,5,5,5,5,5,5,5,5,5,5,5,5,5,5,5,5,5,5,5,5,5,5,5,5,5,5,5,5,5,5,5,5,7)
  ,(0.,1.206019280172E-02,2.663318843414E-02,4.020115003753E-02,
    5.477414566995E-02,6.934714130236E-02,8.392013693476E-02,
    9.547803033835E-02,0.107538440806,0.122111436439,0.136684432071,
    0.148242325475,0.160805252998,0.173368180522,0.182413488504,
    0.191961313581,0.207036826205,0.215077099988,0.232665197272,
    0.251258328244,0.266333840868,0.281409353492,0.292967246896,
    0.314072961463,0.328645957095,0.341208884619,0.352766778023,
    0.364827188491,0.378395150094,0.392968145727,0.40653610733,
    0.421109102962,0.432164479294,0.444727406817,0.457290334341,
    0.471863329974,0.485933808599,0.499501770202,0.514074765834,
    0.528145244459,0.542215723084,0.556788718717,0.571361714349,
    0.585934709982,0.599000154551,0.612568116154,0.628146145753,
    0.642216624378,0.655282068947,0.66985506458,0.682920509149,
    0.695985953718,0.7050312617,0.719604257333,0.729152082409,
    0.743725078042,0.756288005566,0.77035848419,0.784931479823,
    0.799504475455,0.81357495408,0.828147949713,0.842720945345,
    0.854781355813,0.869354351446,0.880409727777,0.892470138245,
    0.901515446227,1.),.UNSPECIFIED.);
#1156 = CARTESIAN_POINT('',(0.,-1.79218452154));
#1157 = CARTESIAN_POINT('',(1.263052123745E-02,-1.79218452154));
#1158 = CARTESIAN_POINT('',(2.525999340585E-02,-1.79218452154));
#1159 = CARTESIAN_POINT('',(3.788915584155E-02,-1.79218452154));
#1160 = CARTESIAN_POINT('',(5.051840995533E-02,-1.79218452154));
#1161 = CARTESIAN_POINT('',(6.314781923238E-02,-1.79218452154));
#1162 = CARTESIAN_POINT('',(9.103777637382E-02,-1.79218452154));
#1163 = CARTESIAN_POINT('',(0.106298444343,-1.79218452154));
#1164 = CARTESIAN_POINT('',(0.121559112727,-1.79218452154));
#1165 = CARTESIAN_POINT('',(0.13681978111,-1.79218452154));
#1166 = CARTESIAN_POINT('',(0.15208044908,-1.79218452154));
#1167 = CARTESIAN_POINT('',(0.18154932372,-1.79218452154));
#1168 = CARTESIAN_POINT('',(0.195757531797,-1.79218452154));
#1169 = CARTESIAN_POINT('',(0.209965740165,-1.79218452154));
#1170 = CARTESIAN_POINT('',(0.224173948532,-1.79218452154));
#1171 = CARTESIAN_POINT('',(0.238382156609,-1.79218452154));
#1172 = CARTESIAN_POINT('',(0.267851031249,-1.79218452154));
#1173 = CARTESIAN_POINT('',(0.283111699219,-1.79218452154));
#1174 = CARTESIAN_POINT('',(0.298372367602,-1.79218452154));
#1175 = CARTESIAN_POINT('',(0.313633035986,-1.79218452154));
#1176 = CARTESIAN_POINT('',(0.328893703955,-1.79218452154));
#1177 = CARTESIAN_POINT('',(0.359415038238,-1.79218452154));
#1178 = CARTESIAN_POINT('',(0.374675706208,-1.79218452154));
#1179 = CARTESIAN_POINT('',(0.389936374591,-1.79218452154));
#1180 = CARTESIAN_POINT('',(0.405197042975,-1.79218452154));
#1181 = CARTESIAN_POINT('',(0.420457710944,-1.79218452154));
#1182 = CARTESIAN_POINT('',(0.450979045227,-1.79218452154));
#1183 = CARTESIAN_POINT('',(0.466239713197,-1.79218452154));
#1184 = CARTESIAN_POINT('',(0.48150038158,-1.79218452154));
#1185 = CARTESIAN_POINT('',(0.496761049964,-1.79218452154));
#1186 = CARTESIAN_POINT('',(0.512021717933,-1.79218452154));
#1187 = CARTESIAN_POINT('',(0.539385673139,-1.79218452154));
#1188 = CARTESIAN_POINT('',(0.551488961462,-1.79218452154));
#1189 = CARTESIAN_POINT('',(0.563592249915,-1.79218452154));
#1190 = CARTESIAN_POINT('',(0.575695538369,-1.79218452154));
#1191 = CARTESIAN_POINT('',(0.587798826692,-1.79218452154));
#1192 = CARTESIAN_POINT('',(0.612531632693,-1.79218452154));
#1193 = CARTESIAN_POINT('',(0.625161150952,-1.79218452154));
#1194 = CARTESIAN_POINT('',(0.637790669372,-1.79218452154));
#1195 = CARTESIAN_POINT('',(0.650420187792,-1.79218452154));
#1196 = CARTESIAN_POINT('',(0.663049706051,-1.79218452154));
#1197 = CARTESIAN_POINT('',(0.69093989113,-1.79218452154));
#1198 = CARTESIAN_POINT('',(0.706200559099,-1.79218452154));
#1199 = CARTESIAN_POINT('',(0.721461227483,-1.79218452154));
#1200 = CARTESIAN_POINT('',(0.736721895866,-1.79218452154));
#1201 = CARTESIAN_POINT('',(0.751982563836,-1.79218452154));
#1202 = CARTESIAN_POINT('',(0.782503898119,-1.79218452154));
#1203 = CARTESIAN_POINT('',(0.797764566088,-1.79218452154));
#1204 = CARTESIAN_POINT('',(0.813025234472,-1.79218452154));
#1205 = CARTESIAN_POINT('',(0.828285902855,-1.79218452154));
#1206 = CARTESIAN_POINT('',(0.843546570825,-1.79218452154));
#1207 = CARTESIAN_POINT('',(0.87091052603,-1.79218452154));
#1208 = CARTESIAN_POINT('',(0.883013814353,-1.79218452154));
#1209 = CARTESIAN_POINT('',(0.895117102807,-1.79218452154));
#1210 = CARTESIAN_POINT('',(0.90722039126,-1.79218452154));
#1211 = CARTESIAN_POINT('',(0.919323679584,-1.79218452154));
#1212 = CARTESIAN_POINT('',(0.944582715449,-1.79218452154));
#1213 = CARTESIAN_POINT('',(0.957738463646,-1.79218452154));
#1214 = CARTESIAN_POINT('',(0.970894212039,-1.79218452154));
#1215 = CARTESIAN_POINT('',(0.984049960432,-1.79218452154));
#1216 = CARTESIAN_POINT('',(0.997205708629,-1.79218452154));
#1217 = CARTESIAN_POINT('',(1.023517204233,-1.79218452154));
#1218 = CARTESIAN_POINT('',(1.036672952429,-1.79218452154));
#1219 = CARTESIAN_POINT('',(1.049828700823,-1.79218452154));
#1220 = CARTESIAN_POINT('',(1.062984449216,-1.79218452154));
#1221 = CARTESIAN_POINT('',(1.076140197412,-1.79218452154));
#1222 = CARTESIAN_POINT('',(1.098768083805,-1.79218452154));
#1223 = CARTESIAN_POINT('',(1.108240222472,-1.79218452154));
#1224 = CARTESIAN_POINT('',(1.117712361177,-1.79218452154));
#1225 = CARTESIAN_POINT('',(1.127184499882,-1.79218452154));
#1226 = CARTESIAN_POINT('',(1.136656638548,-1.79218452154));
#1227 = CARTESIAN_POINT('',(1.156127145635,-1.79218452154));
#1228 = CARTESIAN_POINT('',(1.166125514231,-1.79218452154));
#1229 = CARTESIAN_POINT('',(1.176123882877,-1.79218452154));
#1230 = CARTESIAN_POINT('',(1.186122251522,-1.79218452154));
#1231 = CARTESIAN_POINT('',(1.196120620118,-1.79218452154));
#1232 = CARTESIAN_POINT('',(1.221905885554,-1.79218452154));
#1233 = CARTESIAN_POINT('',(1.237692783474,-1.79218452154));
#1234 = CARTESIAN_POINT('',(1.253479681885,-1.79218452154));
#1235 = CARTESIAN_POINT('',(1.269266580295,-1.79218452154));
#1236 = CARTESIAN_POINT('',(1.285053478216,-1.79218452154));
#1237 = CARTESIAN_POINT('',(1.309260053923,-1.79218452154));
#1238 = CARTESIAN_POINT('',(1.317679732734,-1.79218452154));
#1239 = CARTESIAN_POINT('',(1.326099411566,-1.79218452154));
#1240 = CARTESIAN_POINT('',(1.334519090397,-1.79218452154));
#1241 = CARTESIAN_POINT('',(1.342938769208,-1.79218452154));
#1242 = CARTESIAN_POINT('',(1.369776493592,-1.79218452154));
#1243 = CARTESIAN_POINT('',(1.388194541328,-1.79218452154));
#1244 = CARTESIAN_POINT('',(1.406612590125,-1.79218452154));
#1245 = CARTESIAN_POINT('',(1.425030638921,-1.79218452154));
#1246 = CARTESIAN_POINT('',(1.443448686658,-1.79218452154));
#1247 = CARTESIAN_POINT('',(1.481337237174,-1.79218452154));
#1248 = CARTESIAN_POINT('',(1.500807744874,-1.79218452154));
#1249 = CARTESIAN_POINT('',(1.520278253973,-1.79218452154));
#1250 = CARTESIAN_POINT('',(1.539748763073,-1.79218452154));
#1251 = CARTESIAN_POINT('',(1.559219270773,-1.79218452154));
#1252 = CARTESIAN_POINT('',(1.594476672613,-1.79218452154));
#1253 = CARTESIAN_POINT('',(1.610263570533,-1.79218452154));
#1254 = CARTESIAN_POINT('',(1.626050468943,-1.79218452154));
#1255 = CARTESIAN_POINT('',(1.641837367354,-1.79218452154));
#1256 = CARTESIAN_POINT('',(1.657624265274,-1.79218452154));
#1257 = CARTESIAN_POINT('',(1.689198059153,-1.79218452154));
#1258 = CARTESIAN_POINT('',(1.704984957073,-1.79218452154));
#1259 = CARTESIAN_POINT('',(1.720771855484,-1.79218452154));
#1260 = CARTESIAN_POINT('',(1.736558753895,-1.79218452154));
#1261 = CARTESIAN_POINT('',(1.752345651815,-1.79218452154));
#1262 = CARTESIAN_POINT('',(1.780235836818,-1.79218452154));
#1263 = CARTESIAN_POINT('',(1.792339125141,-1.79218452154));
#1264 = CARTESIAN_POINT('',(1.804442413595,-1.79218452154));
#1265 = CARTESIAN_POINT('',(1.816545702048,-1.79218452154));
#1266 = CARTESIAN_POINT('',(1.828648990371,-1.79218452154));
#1267 = CARTESIAN_POINT('',(1.862853930897,-1.79218452154));
#1268 = CARTESIAN_POINT('',(1.884955588636,-1.79218452154));
#1269 = CARTESIAN_POINT('',(1.907057249013,-1.79218452154));
#1270 = CARTESIAN_POINT('',(1.929158909391,-1.79218452154));
#1271 = CARTESIAN_POINT('',(1.95126056713,-1.79218452154));
#1272 = CARTESIAN_POINT('',(1.988622886733,-1.79218452154));
#1273 = CARTESIAN_POINT('',(2.003883554703,-1.79218452154));
#1274 = CARTESIAN_POINT('',(2.019144223086,-1.79218452154));
#1275 = CARTESIAN_POINT('',(2.03440489147,-1.79218452154));
#1276 = CARTESIAN_POINT('',(2.049665559439,-1.79218452154));
#1277 = CARTESIAN_POINT('',(2.078081974383,-1.79218452154));
#1278 = CARTESIAN_POINT('',(2.091237722579,-1.79218452154));
#1279 = CARTESIAN_POINT('',(2.104393470972,-1.79218452154));
#1280 = CARTESIAN_POINT('',(2.117549219366,-1.79218452154));
#1281 = CARTESIAN_POINT('',(2.130704967562,-1.79218452154));
#1282 = CARTESIAN_POINT('',(2.155964003428,-1.79218452154));
#1283 = CARTESIAN_POINT('',(2.168067291751,-1.79218452154));
#1284 = CARTESIAN_POINT('',(2.180170580205,-1.79218452154));
#1285 = CARTESIAN_POINT('',(2.192273868658,-1.79218452154));
#1286 = CARTESIAN_POINT('',(2.204377156982,-1.79218452154));
#1287 = CARTESIAN_POINT('',(2.229109962983,-1.79218452154));
#1288 = CARTESIAN_POINT('',(2.241739481242,-1.79218452154));
#1289 = CARTESIAN_POINT('',(2.254368999661,-1.79218452154));
#1290 = CARTESIAN_POINT('',(2.266998518081,-1.79218452154));
#1291 = CARTESIAN_POINT('',(2.27962803634,-1.79218452154));
#1292 = CARTESIAN_POINT('',(2.306465761776,-1.79218452154));
#1293 = CARTESIAN_POINT('',(2.320673969854,-1.79218452154));
#1294 = CARTESIAN_POINT('',(2.334882178221,-1.79218452154));
#1295 = CARTESIAN_POINT('',(2.349090386588,-1.79218452154));
#1296 = CARTESIAN_POINT('',(2.363298594666,-1.79218452154));
#1297 = CARTESIAN_POINT('',(2.392767469305,-1.79218452154));
#1298 = CARTESIAN_POINT('',(2.408028137275,-1.79218452154));
#1299 = CARTESIAN_POINT('',(2.423288805658,-1.79218452154));
#1300 = CARTESIAN_POINT('',(2.438549474042,-1.79218452154));
#1301 = CARTESIAN_POINT('',(2.453810142011,-1.79218452154));
#1302 = CARTESIAN_POINT('',(2.483279016651,-1.79218452154));
#1303 = CARTESIAN_POINT('',(2.497487224729,-1.79218452154));
#1304 = CARTESIAN_POINT('',(2.511695433096,-1.79218452154));
#1305 = CARTESIAN_POINT('',(2.525903641463,-1.79218452154));
#1306 = CARTESIAN_POINT('',(2.540111849541,-1.79218452154));
#1307 = CARTESIAN_POINT('',(2.569580724181,-1.79218452154));
#1308 = CARTESIAN_POINT('',(2.58484139215,-1.79218452154));
#1309 = CARTESIAN_POINT('',(2.600102060534,-1.79218452154));
#1310 = CARTESIAN_POINT('',(2.615362728917,-1.79218452154));
#1311 = CARTESIAN_POINT('',(2.630623396887,-1.79218452154));
#1312 = CARTESIAN_POINT('',(2.65746112221,-1.79218452154));
#1313 = CARTESIAN_POINT('',(2.6690381806,-1.79218452154));
#1314 = CARTESIAN_POINT('',(2.680615239093,-1.79218452154));
#1315 = CARTESIAN_POINT('',(2.692192297587,-1.79218452154));
#1316 = CARTESIAN_POINT('',(2.703769355976,-1.79218452154));
#1317 = CARTESIAN_POINT('',(2.72850216196,-1.79218452154));
#1318 = CARTESIAN_POINT('',(2.741657910156,-1.79218452154));
#1319 = CARTESIAN_POINT('',(2.75481365855,-1.79218452154));
#1320 = CARTESIAN_POINT('',(2.767969406943,-1.79218452154));
#1321 = CARTESIAN_POINT('',(2.78112515514,-1.79218452154));
#1322 = CARTESIAN_POINT('',(2.807436650744,-1.79218452154));
#1323 = CARTESIAN_POINT('',(2.82059239894,-1.79218452154));
#1324 = CARTESIAN_POINT('',(2.833748147334,-1.79218452154));
#1325 = CARTESIAN_POINT('',(2.846903895727,-1.79218452154));
#1326 = CARTESIAN_POINT('',(2.860059643923,-1.79218452154));
#1327 = CARTESIAN_POINT('',(2.888476058867,-1.79218452154));
#1328 = CARTESIAN_POINT('',(2.903736726836,-1.79218452154));
#1329 = CARTESIAN_POINT('',(2.91899739522,-1.79218452154));
#1330 = CARTESIAN_POINT('',(2.934258063603,-1.79218452154));
#1331 = CARTESIAN_POINT('',(2.949518731573,-1.79218452154));
#1332 = CARTESIAN_POINT('',(2.979513836042,-1.79218452154));
#1333 = CARTESIAN_POINT('',(2.994248274064,-1.79218452154));
#1334 = CARTESIAN_POINT('',(3.008982712433,-1.79218452154));
#1335 = CARTESIAN_POINT('',(3.023717150803,-1.79218452154));
#1336 = CARTESIAN_POINT('',(3.038451588825,-1.79218452154));
#1337 = CARTESIAN_POINT('',(3.06739423365,-1.79218452154));
#1338 = CARTESIAN_POINT('',(3.081602441728,-1.79218452154));
#1339 = CARTESIAN_POINT('',(3.095810650095,-1.79218452154));
#1340 = CARTESIAN_POINT('',(3.110018858462,-1.79218452154));
#1341 = CARTESIAN_POINT('',(3.12422706654,-1.79218452154));
#1342 = CARTESIAN_POINT('',(3.15369594118,-1.79218452154));
#1343 = CARTESIAN_POINT('',(3.168956609149,-1.79218452154));
#1344 = CARTESIAN_POINT('',(3.184217277533,-1.79218452154));
#1345 = CARTESIAN_POINT('',(3.199477945916,-1.79218452154));
#1346 = CARTESIAN_POINT('',(3.214738613886,-1.79218452154));
#1347 = CARTESIAN_POINT('',(3.244733718355,-1.79218452154));
#1348 = CARTESIAN_POINT('',(3.259468156377,-1.79218452154));
#1349 = CARTESIAN_POINT('',(3.274202594746,-1.79218452154));
#1350 = CARTESIAN_POINT('',(3.288937033116,-1.79218452154));
#1351 = CARTESIAN_POINT('',(3.303671471138,-1.79218452154));
#1352 = CARTESIAN_POINT('',(3.333140345793,-1.79218452154));
#1353 = CARTESIAN_POINT('',(3.347874783815,-1.79218452154));
#1354 = CARTESIAN_POINT('',(3.362609222184,-1.79218452154));
#1355 = CARTESIAN_POINT('',(3.377343660554,-1.79218452154));
#1356 = CARTESIAN_POINT('',(3.392078098576,-1.79218452154));
#1357 = CARTESIAN_POINT('',(3.422073203044,-1.79218452154));
#1358 = CARTESIAN_POINT('',(3.437333871014,-1.79218452154));
#1359 = CARTESIAN_POINT('',(3.452594539397,-1.79218452154));
#1360 = CARTESIAN_POINT('',(3.467855207781,-1.79218452154));
#1361 = CARTESIAN_POINT('',(3.48311587575,-1.79218452154));
#1362 = CARTESIAN_POINT('',(3.513637210033,-1.79218452154));
#1363 = CARTESIAN_POINT('',(3.528897878003,-1.79218452154));
#1364 = CARTESIAN_POINT('',(3.544158546387,-1.79218452154));
#1365 = CARTESIAN_POINT('',(3.55941921477,-1.79218452154));
#1366 = CARTESIAN_POINT('',(3.57467988274,-1.79218452154));
#1367 = CARTESIAN_POINT('',(3.605201217023,-1.79218452154));
#1368 = CARTESIAN_POINT('',(3.620461884992,-1.79218452154));
#1369 = CARTESIAN_POINT('',(3.635722553376,-1.79218452154));
#1370 = CARTESIAN_POINT('',(3.650983221759,-1.79218452154));
#1371 = CARTESIAN_POINT('',(3.666243889729,-1.79218452154));
#1372 = CARTESIAN_POINT('',(3.695186534526,-1.79218452154));
#1373 = CARTESIAN_POINT('',(3.708868512662,-1.79218452154));
#1374 = CARTESIAN_POINT('',(3.722550491038,-1.79218452154));
#1375 = CARTESIAN_POINT('',(3.736232469413,-1.79218452154));
#1376 = CARTESIAN_POINT('',(3.749914447549,-1.79218452154));
#1377 = CARTESIAN_POINT('',(3.777804632703,-1.79218452154));
#1378 = CARTESIAN_POINT('',(3.792012840781,-1.79218452154));
#1379 = CARTESIAN_POINT('',(3.806221049148,-1.79218452154));
#1380 = CARTESIAN_POINT('',(3.820429257515,-1.79218452154));
#1381 = CARTESIAN_POINT('',(3.834637465593,-1.79218452154));
#1382 = CARTESIAN_POINT('',(3.86515879981,-1.79218452154));
#1383 = CARTESIAN_POINT('',(3.881471927685,-1.79218452154));
#1384 = CARTESIAN_POINT('',(3.897785056137,-1.79218452154));
#1385 = CARTESIAN_POINT('',(3.91409818459,-1.79218452154));
#1386 = CARTESIAN_POINT('',(3.930411312464,-1.79218452154));
#1387 = CARTESIAN_POINT('',(3.961458876511,-1.79218452154));
#1388 = CARTESIAN_POINT('',(3.976193314533,-1.79218452154));
#1389 = CARTESIAN_POINT('',(3.990927752902,-1.79218452154));
#1390 = CARTESIAN_POINT('',(4.005662191272,-1.79218452154));
#1391 = CARTESIAN_POINT('',(4.020396629294,-1.79218452154));
#1392 = CARTESIAN_POINT('',(4.048813044277,-1.79218452154));
#1393 = CARTESIAN_POINT('',(4.062495022413,-1.79218452154));
#1394 = CARTESIAN_POINT('',(4.076177000788,-1.79218452154));
#1395 = CARTESIAN_POINT('',(4.089858979164,-1.79218452154));
#1396 = CARTESIAN_POINT('',(4.1035409573,-1.79218452154));
#1397 = CARTESIAN_POINT('',(4.132483602097,-1.79218452154));
#1398 = CARTESIAN_POINT('',(4.147744270067,-1.79218452154));
#1399 = CARTESIAN_POINT('',(4.16300493845,-1.79218452154));
#1400 = CARTESIAN_POINT('',(4.178265606834,-1.79218452154));
#1401 = CARTESIAN_POINT('',(4.193526274803,-1.79218452154));
#1402 = CARTESIAN_POINT('',(4.222468919601,-1.79218452154));
#1403 = CARTESIAN_POINT('',(4.236150897737,-1.79218452154));
#1404 = CARTESIAN_POINT('',(4.249832876112,-1.79218452154));
#1405 = CARTESIAN_POINT('',(4.263514854488,-1.79218452154));
#1406 = CARTESIAN_POINT('',(4.277196832624,-1.79218452154));
#1407 = CARTESIAN_POINT('',(4.304560787936,-1.79218452154));
#1408 = CARTESIAN_POINT('',(4.318242766072,-1.79218452154));
#1409 = CARTESIAN_POINT('',(4.331924744448,-1.79218452154));
#1410 = CARTESIAN_POINT('',(4.345606722823,-1.79218452154));
#1411 = CARTESIAN_POINT('',(4.359288700959,-1.79218452154));
#1412 = CARTESIAN_POINT('',(4.382442817205,-1.79218452154));
#1413 = CARTESIAN_POINT('',(4.391914955872,-1.79218452154));
#1414 = CARTESIAN_POINT('',(4.401387094577,-1.79218452154));
#1415 = CARTESIAN_POINT('',(4.410859233282,-1.79218452154));
#1416 = CARTESIAN_POINT('',(4.420331371949,-1.79218452154));
#1417 = CARTESIAN_POINT('',(4.445064177681,-1.79218452154));
#1418 = CARTESIAN_POINT('',(4.46032484565,-1.79218452154));
#1419 = CARTESIAN_POINT('',(4.475585514034,-1.79218452154));
#1420 = CARTESIAN_POINT('',(4.490846182417,-1.79218452154));
#1421 = CARTESIAN_POINT('',(4.506106850387,-1.79218452154));
#1422 = CARTESIAN_POINT('',(4.531365886024,-1.79218452154));
#1423 = CARTESIAN_POINT('',(4.54136425462,-1.79218452154));
#1424 = CARTESIAN_POINT('',(4.551362623266,-1.79218452154));
#1425 = CARTESIAN_POINT('',(4.561360991912,-1.79218452154));
#1426 = CARTESIAN_POINT('',(4.571359360508,-1.79218452154));
#1427 = CARTESIAN_POINT('',(4.596618396145,-1.79218452154));
#1428 = CARTESIAN_POINT('',(4.611879064115,-1.79218452154));
#1429 = CARTESIAN_POINT('',(4.627139732498,-1.79218452154));
#1430 = CARTESIAN_POINT('',(4.642400400882,-1.79218452154));
#1431 = CARTESIAN_POINT('',(4.657661068851,-1.79218452154));
#1432 = CARTESIAN_POINT('',(4.686077483795,-1.79218452154));
#1433 = CARTESIAN_POINT('',(4.699233231991,-1.79218452154));
#1434 = CARTESIAN_POINT('',(4.712388980385,-1.79218452154));
#1435 = CARTESIAN_POINT('',(4.725544728778,-1.79218452154));
#1436 = CARTESIAN_POINT('',(4.738700476974,-1.79218452154));
#1437 = CARTESIAN_POINT('',(4.766590662104,-1.79218452154));
#1438 = CARTESIAN_POINT('',(4.781325100126,-1.79218452154));
#1439 = CARTESIAN_POINT('',(4.796059538495,-1.79218452154));
#1440 = CARTESIAN_POINT('',(4.810793976865,-1.79218452154));
#1441 = CARTESIAN_POINT('',(4.825528414887,-1.79218452154));
#1442 = CARTESIAN_POINT('',(4.855523519356,-1.79218452154));
#1443 = CARTESIAN_POINT('',(4.870784187325,-1.79218452154));
#1444 = CARTESIAN_POINT('',(4.886044855709,-1.79218452154));
#1445 = CARTESIAN_POINT('',(4.901305524092,-1.79218452154));
#1446 = CARTESIAN_POINT('',(4.916566192062,-1.79218452154));
#1447 = CARTESIAN_POINT('',(4.947087526345,-1.79218452154));
#1448 = CARTESIAN_POINT('',(4.962348194314,-1.79218452154));
#1449 = CARTESIAN_POINT('',(4.977608862698,-1.79218452154));
#1450 = CARTESIAN_POINT('',(4.992869531081,-1.79218452154));
#1451 = CARTESIAN_POINT('',(5.008130199051,-1.79218452154));
#1452 = CARTESIAN_POINT('',(5.03812530352,-1.79218452154));
#1453 = CARTESIAN_POINT('',(5.052859741542,-1.79218452154));
#1454 = CARTESIAN_POINT('',(5.067594179911,-1.79218452154));
#1455 = CARTESIAN_POINT('',(5.082328618281,-1.79218452154));
#1456 = CARTESIAN_POINT('',(5.097063056303,-1.79218452154));
#1457 = CARTESIAN_POINT('',(5.127058160772,-1.79218452154));
#1458 = CARTESIAN_POINT('',(5.142318828741,-1.79218452154));
#1459 = CARTESIAN_POINT('',(5.157579497125,-1.79218452154));
#1460 = CARTESIAN_POINT('',(5.172840165508,-1.79218452154));
#1461 = CARTESIAN_POINT('',(5.188100833478,-1.79218452154));
#1462 = CARTESIAN_POINT('',(5.218622167761,-1.79218452154));
#1463 = CARTESIAN_POINT('',(5.23388283573,-1.79218452154));
#1464 = CARTESIAN_POINT('',(5.249143504114,-1.79218452154));
#1465 = CARTESIAN_POINT('',(5.264404172497,-1.79218452154));
#1466 = CARTESIAN_POINT('',(5.279664840467,-1.79218452154));
#1467 = CARTESIAN_POINT('',(5.307555025546,-1.79218452154));
#1468 = CARTESIAN_POINT('',(5.320184543805,-1.79218452154));
#1469 = CARTESIAN_POINT('',(5.332814062224,-1.79218452154));
#1470 = CARTESIAN_POINT('',(5.345443580644,-1.79218452154));
#1471 = CARTESIAN_POINT('',(5.358073098903,-1.79218452154));
#1472 = CARTESIAN_POINT('',(5.385963283982,-1.79218452154));
#1473 = CARTESIAN_POINT('',(5.401223951952,-1.79218452154));
#1474 = CARTESIAN_POINT('',(5.416484620335,-1.79218452154));
#1475 = CARTESIAN_POINT('',(5.431745288719,-1.79218452154));
#1476 = CARTESIAN_POINT('',(5.447005956688,-1.79218452154));
#1477 = CARTESIAN_POINT('',(5.473843682011,-1.79218452154));
#1478 = CARTESIAN_POINT('',(5.485420740401,-1.79218452154));
#1479 = CARTESIAN_POINT('',(5.496997798894,-1.79218452154));
#1480 = CARTESIAN_POINT('',(5.508574857388,-1.79218452154));
#1481 = CARTESIAN_POINT('',(5.520151915778,-1.79218452154));
#1482 = CARTESIAN_POINT('',(5.544358491897,-1.79218452154));
#1483 = CARTESIAN_POINT('',(5.556988010156,-1.79218452154));
#1484 = CARTESIAN_POINT('',(5.569617528575,-1.79218452154));
#1485 = CARTESIAN_POINT('',(5.582247046995,-1.79218452154));
#1486 = CARTESIAN_POINT('',(5.594876565254,-1.79218452154));
#1487 = CARTESIAN_POINT('',(5.616978221782,-1.79218452154));
#1488 = CARTESIAN_POINT('',(5.626450360449,-1.79218452154));
#1489 = CARTESIAN_POINT('',(5.635922499154,-1.79218452154));
#1490 = CARTESIAN_POINT('',(5.645394637859,-1.79218452154));
#1491 = CARTESIAN_POINT('',(5.654866776525,-1.79218452154));
#1492 = CARTESIAN_POINT('',(5.76747076471,-1.79218452154));
#1493 = CARTESIAN_POINT('',(5.870635886575,-1.79218452154));
#1494 = CARTESIAN_POINT('',(5.973762111148,-1.79218452154));
#1495 = CARTESIAN_POINT('',(6.07688833572,-1.79218452154));
#1496 = CARTESIAN_POINT('',(6.180053457585,-1.79218452154));
#1497 = CARTESIAN_POINT('',(6.28318530718,-1.79218452154));
#1498 = ( GEOMETRIC_REPRESENTATION_CONTEXT(2) 
PARAMETRIC_REPRESENTATION_CONTEXT() REPRESENTATION_CONTEXT('2D SPACE',''
  ) );
#1499 = ORIENTED_EDGE('',*,*,#436,.F.);
#1500 = ADVANCED_FACE('',(#1501),#1149,.F.);
#1501 = FACE_BOUND('',#1502,.F.);
#1502 = EDGE_LOOP('',(#1503,#1504,#1527,#1554));
#1503 = ORIENTED_EDGE('',*,*,#457,.F.);
#1504 = ORIENTED_EDGE('',*,*,#1505,.T.);
#1505 = EDGE_CURVE('',#437,#1506,#1508,.T.);
#1506 = VERTEX_POINT('',#1507);
#1507 = CARTESIAN_POINT('',(-62.5,52.39218452154,80.));
#1508 = SEAM_CURVE('',#1509,(#1513,#1520),.PCURVE_S1.);
#1509 = LINE('',#1510,#1511);
#1510 = CARTESIAN_POINT('',(-62.5,98.39218452154,80.));
#1511 = VECTOR('',#1512,1.);
#1512 = DIRECTION('',(-0.,-1.,-0.));
#1513 = PCURVE('',#1149,#1514);
#1514 = DEFINITIONAL_REPRESENTATION('',(#1515),#1519);
#1515 = LINE('',#1516,#1517);
#1516 = CARTESIAN_POINT('',(6.28318530718,0.));
#1517 = VECTOR('',#1518,1.);
#1518 = DIRECTION('',(0.,-1.));
#1519 = ( GEOMETRIC_REPRESENTATION_CONTEXT(2) 
PARAMETRIC_REPRESENTATION_CONTEXT() REPRESENTATION_CONTEXT('2D SPACE',''
  ) );
#1520 = PCURVE('',#1149,#1521);
#1521 = DEFINITIONAL_REPRESENTATION('',(#1522),#1526);
#1522 = LINE('',#1523,#1524);
#1523 = CARTESIAN_POINT('',(0.,0.));
#1524 = VECTOR('',#1525,1.);
#1525 = DIRECTION('',(0.,-1.));
#1526 = ( GEOMETRIC_REPRESENTATION_CONTEXT(2) 
PARAMETRIC_REPRESENTATION_CONTEXT() REPRESENTATION_CONTEXT('2D SPACE',''
  ) );
#1527 = ORIENTED_EDGE('',*,*,#1528,.T.);
#1528 = EDGE_CURVE('',#1506,#1506,#1529,.T.);
#1529 = SURFACE_CURVE('',#1530,(#1535,#1542),.PCURVE_S1.);
#1530 = CIRCLE('',#1531,5.);
#1531 = AXIS2_PLACEMENT_3D('',#1532,#1533,#1534);
#1532 = CARTESIAN_POINT('',(-62.5,52.39218452154,75.));
#1533 = DIRECTION('',(0.,1.,0.));
#1534 = DIRECTION('',(0.,0.,1.));
#1535 = PCURVE('',#1149,#1536);
#1536 = DEFINITIONAL_REPRESENTATION('',(#1537),#1541);
#1537 = LINE('',#1538,#1539);
#1538 = CARTESIAN_POINT('',(0.,-46.));
#1539 = VECTOR('',#1540,1.);
#1540 = DIRECTION('',(1.,0.));
#1541 = ( GEOMETRIC_REPRESENTATION_CONTEXT(2) 
PARAMETRIC_REPRESENTATION_CONTEXT() REPRESENTATION_CONTEXT('2D SPACE',''
  ) );
#1542 = PCURVE('',#1543,#1548);
#1543 = PLANE('',#1544);
#1544 = AXIS2_PLACEMENT_3D('',#1545,#1546,#1547);
#1545 = CARTESIAN_POINT('',(-62.5,52.39218452154,75.));
#1546 = DIRECTION('',(-5.048709793414E-30,1.,1.682903264472E-31));
#1547 = DIRECTION('',(1.,5.048709793414E-30,0.));
#1548 = DEFINITIONAL_REPRESENTATION('',(#1549),#1553);
#1549 = CIRCLE('',#1550,5.);
#1550 = AXIS2_PLACEMENT_2D('',#1551,#1552);
#1551 = CARTESIAN_POINT('',(7.105427357601E-15,-6.037119385885E-75));
#1552 = DIRECTION('',(0.,-1.));
#1553 = ( GEOMETRIC_REPRESENTATION_CONTEXT(2) 
PARAMETRIC_REPRESENTATION_CONTEXT() REPRESENTATION_CONTEXT('2D SPACE',''
  ) );
#1554 = ORIENTED_EDGE('',*,*,#1505,.F.);
#1555 = ADVANCED_FACE('',(#1556),#1543,.T.);
#1556 = FACE_BOUND('',#1557,.T.);
#1557 = EDGE_LOOP('',(#1558));
#1558 = ORIENTED_EDGE('',*,*,#1528,.T.);
#1559 = ( GEOMETRIC_REPRESENTATION_CONTEXT(3) 
GLOBAL_UNCERTAINTY_ASSIGNED_CONTEXT((#1563)) 
GLOBAL_UNIT_ASSIGNED_CONTEXT((#1560,#1561,#1562)) REPRESENTATION_CONTEXT
('Context #1','3D Context with UNIT and UNCERTAINTY') );
#1560 = ( LENGTH_UNIT() NAMED_UNIT(*) SI_UNIT(.MILLI.,.METRE.) );
#1561 = ( NAMED_UNIT(*) PLANE_ANGLE_UNIT() SI_UNIT($,.RADIAN.) );
#1562 = ( NAMED_UNIT(*) SI_UNIT($,.STERADIAN.) SOLID_ANGLE_UNIT() );
#1563 = UNCERTAINTY_MEASURE_WITH_UNIT(LENGTH_MEASURE(1.E-07),#1560,
  'distance_accuracy_value','confusion accuracy');
#1564 = PRODUCT_RELATED_PRODUCT_CATEGORY('part',$,(#7));
ENDSEC;
END-ISO-10303-21;
